solid OpenSCAD_Model
  facet normal 0.161782 0 -0.986826
    outer loop
      vertex 4.59745 4.1 0.00263977
      vertex 4.98155 5.9 0.0656099
      vertex 4.98155 4.1 0.0656099
    endloop
  endfacet
  facet normal 0.161782 0 -0.986826
    outer loop
      vertex 4.98155 5.9 0.0656099
      vertex 4.59745 4.1 0.00263977
      vertex 4.59745 5.9 0.00263977
    endloop
  endfacet
  facet normal 0.947653 -0 0.319301
    outer loop
      vertex 6.13364 4.1 2.5558
      vertex 6.25792 5.9 2.18695
      vertex 6.13364 5.9 2.5558
    endloop
  endfacet
  facet normal 0.947653 0 0.319301
    outer loop
      vertex 6.25792 5.9 2.18695
      vertex 6.13364 4.1 2.5558
      vertex 6.25792 4.1 2.18695
    endloop
  endfacet
  facet normal 0.994139 -0 0.108111
    outer loop
      vertex 6.25792 4.1 2.18695
      vertex 6.3 5.9 1.8
      vertex 6.25792 5.9 2.18695
    endloop
  endfacet
  facet normal 0.994139 0 0.108111
    outer loop
      vertex 6.3 5.9 1.8
      vertex 6.25792 4.1 2.18695
      vertex 6.3 4.1 1.8
    endloop
  endfacet
  facet normal 0.370141 0 -0.928975
    outer loop
      vertex 4.98155 4.1 0.0656099
      vertex 5.34313 5.9 0.209678
      vertex 5.34313 4.1 0.209678
    endloop
  endfacet
  facet normal 0.370141 0 -0.928975
    outer loop
      vertex 5.34313 5.9 0.209678
      vertex 4.98155 4.1 0.0656099
      vertex 4.98155 5.9 0.0656099
    endloop
  endfacet
  facet normal 0.725985 0 -0.68771
    outer loop
      vertex 5.93297 4.1 0.710686
      vertex 5.66529 5.9 0.428108
      vertex 5.93297 5.9 0.710686
    endloop
  endfacet
  facet normal 0.725985 0 -0.68771
    outer loop
      vertex 5.66529 5.9 0.428108
      vertex 5.93297 4.1 0.710686
      vertex 5.66529 4.1 0.428108
    endloop
  endfacet
  facet normal 0.561189 0 0.827688
    outer loop
      vertex 5.66529 5.9 3.17189
      vertex 5.5 4.25 3.28396
      vertex 5.66529 4.1 3.17189
    endloop
  endfacet
  facet normal 0.561214 -3.71059e-06 0.82767
    outer loop
      vertex 5.49597 5.9 3.2867
      vertex 5.5 4.25 3.28396
      vertex 5.66529 5.9 3.17189
    endloop
  endfacet
  facet normal 0.562254 0 0.826965
    outer loop
      vertex 5.5 4.25 3.28396
      vertex 5.49597 5.9 3.2867
      vertex 5.49597 4.25 3.2867
    endloop
  endfacet
  facet normal 0.561189 0 0.827688
    outer loop
      vertex 5.66529 4.1 3.17189
      vertex 5.5 4.25 3.28396
      vertex 5.5 4.1 3.28396
    endloop
  endfacet
  facet normal -0.0541363 0 -0.998534
    outer loop
      vertex 4.50236 4.1 0.00779515
      vertex 4.59745 5.9 0.00263977
      vertex 4.59745 4.1 0.00263977
    endloop
  endfacet
  facet normal -0.0541363 0 -0.998534
    outer loop
      vertex 4.59745 5.9 0.00263977
      vertex 4.50236 4.1 0.00779515
      vertex 4.50236 5.9 0.00779515
    endloop
  endfacet
  facet normal 0.856856 0 -0.515556
    outer loop
      vertex 6.13364 4.1 1.0442
      vertex 5.93297 5.9 0.710686
      vertex 6.13364 5.9 1.0442
    endloop
  endfacet
  facet normal 0.856856 0 -0.515556
    outer loop
      vertex 5.93297 5.9 0.710686
      vertex 6.13364 4.1 1.0442
      vertex 5.93297 4.1 0.710686
    endloop
  endfacet
  facet normal 0.856853 -0 0.515561
    outer loop
      vertex 5.93297 4.1 2.88931
      vertex 6.13364 5.9 2.5558
      vertex 5.93297 5.9 2.88931
    endloop
  endfacet
  facet normal 0.856853 0 0.515561
    outer loop
      vertex 6.13364 5.9 2.5558
      vertex 5.93297 4.1 2.88931
      vertex 6.13364 4.1 2.5558
    endloop
  endfacet
  facet normal 0.725988 -0 0.687708
    outer loop
      vertex 5.66529 4.1 3.17189
      vertex 5.93297 5.9 2.88931
      vertex 5.66529 5.9 3.17189
    endloop
  endfacet
  facet normal 0.725988 0 0.687708
    outer loop
      vertex 5.93297 5.9 2.88931
      vertex 5.66529 4.1 3.17189
      vertex 5.93297 4.1 2.88931
    endloop
  endfacet
  facet normal 0 1 0
    outer loop
      vertex 4.50236 5.9 0.00779515
      vertex 0.976359 5.9 6.49999
      vertex 1 5.9 6.49999
    endloop
  endfacet
  facet normal 0 1 0
    outer loop
      vertex 0.976359 5.9 6.49999
      vertex 4.50236 5.9 0.00779515
      vertex -0.990985 5.9 6.49999
    endloop
  endfacet
  facet normal 0 1 -0
    outer loop
      vertex 5.49597 5.9 3.2867
      vertex 1 5.9 6.49999
      vertex 5.5 5.9 3.3
    endloop
  endfacet
  facet normal 0 1 -0
    outer loop
      vertex 4.50236 5.9 0.00779515
      vertex 1 5.9 6.49999
      vertex 5.49597 5.9 3.2867
    endloop
  endfacet
  facet normal 0 1 0
    outer loop
      vertex -1 5.9 6.49999
      vertex -5.49875 5.9 3.29588
      vertex -5.5 5.9 3.3
    endloop
  endfacet
  facet normal -0 1 0
    outer loop
      vertex -4.50244 5.9 0.00805582
      vertex -0.990985 5.9 6.49999
      vertex 4.50236 5.9 0.00779515
    endloop
  endfacet
  facet normal 0 1 0
    outer loop
      vertex -0.990985 5.9 6.49999
      vertex -4.50244 5.9 0.00805582
      vertex -1 5.9 6.49999
    endloop
  endfacet
  facet normal 0 1 0
    outer loop
      vertex 5.93297 5.9 2.88931
      vertex 5.49597 5.9 3.2867
      vertex 5.66529 5.9 3.17189
    endloop
  endfacet
  facet normal 0 1 0
    outer loop
      vertex -1 5.9 6.49999
      vertex -4.50244 5.9 0.00805582
      vertex -5.49875 5.9 3.29588
    endloop
  endfacet
  facet normal 0 1 0
    outer loop
      vertex 6.13364 5.9 2.5558
      vertex 5.49597 5.9 3.2867
      vertex 5.93297 5.9 2.88931
    endloop
  endfacet
  facet normal -0 1 0
    outer loop
      vertex -5.80679 5.9 3.03786
      vertex -5.49875 5.9 3.29588
      vertex -4.50244 5.9 0.00805582
    endloop
  endfacet
  facet normal 0 1 0
    outer loop
      vertex 5.49597 5.9 3.2867
      vertex 6.13364 5.9 2.5558
      vertex 4.50236 5.9 0.00779515
    endloop
  endfacet
  facet normal 0 1 0
    outer loop
      vertex -5.49875 5.9 3.29588
      vertex -5.80679 5.9 3.03786
      vertex -5.51014 5.9 3.28984
    endloop
  endfacet
  facet normal 0 1 0
    outer loop
      vertex 4.50236 5.9 0.00779515
      vertex 6.13364 5.9 2.5558
      vertex 6.25792 5.9 2.18695
    endloop
  endfacet
  facet normal 0 1 0
    outer loop
      vertex -5.80679 5.9 3.03786
      vertex -4.50244 5.9 0.00805582
      vertex -6.04234 5.9 2.728
    endloop
  endfacet
  facet normal 0 1 0
    outer loop
      vertex 4.50236 5.9 0.00779515
      vertex 6.25792 5.9 2.18695
      vertex 6.3 5.9 1.8
    endloop
  endfacet
  facet normal 0 1 0
    outer loop
      vertex -6.04234 5.9 2.728
      vertex -4.50244 5.9 0.00805582
      vertex -6.20578 5.9 2.37474
    endloop
  endfacet
  facet normal 0 1 0
    outer loop
      vertex 4.50236 5.9 0.00779515
      vertex 6.3 5.9 1.8
      vertex 6.25792 5.9 1.41305
    endloop
  endfacet
  facet normal 0 1 0
    outer loop
      vertex -6.20578 5.9 2.37474
      vertex -4.50244 5.9 0.00805582
      vertex -6.28945 5.9 1.99461
    endloop
  endfacet
  facet normal 0 1 0
    outer loop
      vertex 4.50236 5.9 0.00779515
      vertex 6.25792 5.9 1.41305
      vertex 6.13364 5.9 1.0442
    endloop
  endfacet
  facet normal 0 1 0
    outer loop
      vertex -6.28945 5.9 1.99461
      vertex -4.50244 5.9 0.00805582
      vertex -6.28945 5.9 1.60538
    endloop
  endfacet
  facet normal 0 1 0
    outer loop
      vertex 4.50236 5.9 0.00779515
      vertex 6.13364 5.9 1.0442
      vertex 5.93297 5.9 0.710686
    endloop
  endfacet
  facet normal 0 1 0
    outer loop
      vertex -6.28945 5.9 1.60538
      vertex -4.50244 5.9 0.00805582
      vertex -6.20578 5.9 1.22526
    endloop
  endfacet
  facet normal 0 1 0
    outer loop
      vertex 4.50236 5.9 0.00779515
      vertex 5.93297 5.9 0.710686
      vertex 5.66529 5.9 0.428108
    endloop
  endfacet
  facet normal 0 1 0
    outer loop
      vertex -6.20578 5.9 1.22526
      vertex -4.50244 5.9 0.00805582
      vertex -6.04234 5.9 0.872003
    endloop
  endfacet
  facet normal 0 1 0
    outer loop
      vertex 4.50236 5.9 0.00779515
      vertex 5.66529 5.9 0.428108
      vertex 5.34313 5.9 0.209678
    endloop
  endfacet
  facet normal 0 1 0
    outer loop
      vertex -6.04234 5.9 0.872003
      vertex -4.50244 5.9 0.00805582
      vertex -5.80679 5.9 0.56214
    endloop
  endfacet
  facet normal 0 1 0
    outer loop
      vertex 4.50236 5.9 0.00779515
      vertex 5.34313 5.9 0.209678
      vertex 4.98155 5.9 0.0656099
    endloop
  endfacet
  facet normal 0 1 0
    outer loop
      vertex -5.80679 5.9 0.56214
      vertex -4.50244 5.9 0.00805582
      vertex -5.51014 5.9 0.31016
    endloop
  endfacet
  facet normal 0 1 0
    outer loop
      vertex -5.16625 5.9 0.127841
      vertex -4.50244 5.9 0.00805582
      vertex -4.79121 5.9 0.0237122
    endloop
  endfacet
  facet normal 0 1 0
    outer loop
      vertex -5.51014 5.9 0.31016
      vertex -4.50244 5.9 0.00805582
      vertex -5.16625 5.9 0.127841
    endloop
  endfacet
  facet normal -0 1 0
    outer loop
      vertex 4.50236 5.9 0.00779515
      vertex 4.98155 5.9 0.0656099
      vertex 4.59745 5.9 0.00263977
    endloop
  endfacet
  facet normal 0 1 0
    outer loop
      vertex 0.976359 5.9 6.49999
      vertex 0.0974493 5.9 6.79736
      vertex 0.48155 5.9 6.73439
    endloop
  endfacet
  facet normal 0 1 0
    outer loop
      vertex 0.0974493 5.9 6.79736
      vertex 0.976359 5.9 6.49999
      vertex -0.291207 5.9 6.77629
    endloop
  endfacet
  facet normal 0 1 0
    outer loop
      vertex 0.976359 5.9 6.49999
      vertex 0.48155 5.9 6.73439
      vertex 0.843135 5.9 6.59032
    endloop
  endfacet
  facet normal 0 1 0
    outer loop
      vertex -0.291207 5.9 6.77629
      vertex 0.976359 5.9 6.49999
      vertex -0.666248 5.9 6.67216
    endloop
  endfacet
  facet normal 0 1 0
    outer loop
      vertex -0.666248 5.9 6.67216
      vertex 0.976359 5.9 6.49999
      vertex -0.990985 5.9 6.49999
    endloop
  endfacet
  facet normal 0 1 -0
    outer loop
      vertex 4.5 5.9 -5.72205e-06
      vertex -4.50244 5.9 0.00805582
      vertex 4.50236 5.9 0.00779515
    endloop
  endfacet
  facet normal 0 1 0
    outer loop
      vertex -4.50244 5.9 0.00805582
      vertex 4.5 5.9 -5.72205e-06
      vertex -4.5 5.9 -5.72205e-06
    endloop
  endfacet
  facet normal 0.947653 0 -0.319301
    outer loop
      vertex 6.25792 4.1 1.41305
      vertex 6.13364 5.9 1.0442
      vertex 6.25792 5.9 1.41305
    endloop
  endfacet
  facet normal 0.947653 0 -0.319301
    outer loop
      vertex 6.13364 5.9 1.0442
      vertex 6.25792 4.1 1.41305
      vertex 6.13364 4.1 1.0442
    endloop
  endfacet
  facet normal 0.561187 0 -0.827689
    outer loop
      vertex 5.34313 4.1 0.209678
      vertex 5.66529 5.9 0.428108
      vertex 5.66529 4.1 0.428108
    endloop
  endfacet
  facet normal 0.561187 0 -0.827689
    outer loop
      vertex 5.66529 5.9 0.428108
      vertex 5.34313 4.1 0.209678
      vertex 5.34313 5.9 0.209678
    endloop
  endfacet
  facet normal 0.994139 0 -0.108111
    outer loop
      vertex 6.3 4.1 1.8
      vertex 6.25792 5.9 1.41305
      vertex 6.3 5.9 1.8
    endloop
  endfacet
  facet normal 0.994139 0 -0.108111
    outer loop
      vertex 6.25792 5.9 1.41305
      vertex 6.3 4.1 1.8
      vertex 6.25792 4.1 1.41305
    endloop
  endfacet
  facet normal 0 -1 0
    outer loop
      vertex -5.5 4.1 2.4
      vertex -5.51014 4.1 3.28984
      vertex -5.80679 4.1 3.03786
    endloop
  endfacet
  facet normal 0 -1 0
    outer loop
      vertex -5.5 4.1 2.4
      vertex -5.80679 4.1 3.03786
      vertex -6.04234 4.1 2.728
    endloop
  endfacet
  facet normal 0 -1 0
    outer loop
      vertex -5.51014 4.1 3.28984
      vertex -5.5 4.1 2.4
      vertex -5.5 4.1 3.29521
    endloop
  endfacet
  facet normal 0 -1 0
    outer loop
      vertex -6.28945 4.1 1.99461
      vertex -5.5 4.1 2.4
      vertex -6.20578 4.1 2.37474
    endloop
  endfacet
  facet normal 0 -1 0
    outer loop
      vertex -6.20578 4.1 2.37474
      vertex -5.5 4.1 2.4
      vertex -6.04234 4.1 2.728
    endloop
  endfacet
  facet normal 0 -1 0
    outer loop
      vertex 5.5 4.1 2.4
      vertex 5.66529 4.1 3.17189
      vertex 5.5 4.1 3.28396
    endloop
  endfacet
  facet normal 0 -1 -0
    outer loop
      vertex 5.66529 4.1 3.17189
      vertex 5.5 4.1 2.4
      vertex 5.93297 4.1 2.88931
    endloop
  endfacet
  facet normal 0 -1 -0
    outer loop
      vertex 5.93297 4.1 2.88931
      vertex 5.5 4.1 2.4
      vertex 6.13364 4.1 2.5558
    endloop
  endfacet
  facet normal 0 -1 0
    outer loop
      vertex 5.5 4.1 2.4
      vertex 6.25792 4.1 2.18695
      vertex 6.13364 4.1 2.5558
    endloop
  endfacet
  facet normal 0 -1 0
    outer loop
      vertex -5.5 4.1 2.4
      vertex -4.50244 4.1 0.00805582
      vertex 5.5 4.1 2.4
    endloop
  endfacet
  facet normal 0 -1 0
    outer loop
      vertex -6.28945 4.1 1.60538
      vertex -5.5 4.1 2.4
      vertex -6.28945 4.1 1.99461
    endloop
  endfacet
  facet normal 0 -1 0
    outer loop
      vertex 5.5 4.1 2.4
      vertex -4.50244 4.1 0.00805582
      vertex 4.50236 4.1 0.00779515
    endloop
  endfacet
  facet normal 0 -1 0
    outer loop
      vertex -6.20578 4.1 1.22526
      vertex -5.5 4.1 2.4
      vertex -6.28945 4.1 1.60538
    endloop
  endfacet
  facet normal -0 -1 0
    outer loop
      vertex 4.98155 4.1 0.0656099
      vertex 5.5 4.1 2.4
      vertex 4.50236 4.1 0.00779515
    endloop
  endfacet
  facet normal 0 -1 0
    outer loop
      vertex -6.04234 4.1 0.872003
      vertex -5.5 4.1 2.4
      vertex -6.20578 4.1 1.22526
    endloop
  endfacet
  facet normal 0 -1 0
    outer loop
      vertex 5.5 4.1 2.4
      vertex 6.3 4.1 1.8
      vertex 6.25792 4.1 2.18695
    endloop
  endfacet
  facet normal 0 -1 0
    outer loop
      vertex -5.80679 4.1 0.56214
      vertex -5.5 4.1 2.4
      vertex -6.04234 4.1 0.872003
    endloop
  endfacet
  facet normal 0 -1 0
    outer loop
      vertex 5.5 4.1 2.4
      vertex 6.25792 4.1 1.41305
      vertex 6.3 4.1 1.8
    endloop
  endfacet
  facet normal 0 -1 0
    outer loop
      vertex -5.51014 4.1 0.31016
      vertex -5.5 4.1 2.4
      vertex -5.80679 4.1 0.56214
    endloop
  endfacet
  facet normal 0 -1 0
    outer loop
      vertex 5.5 4.1 2.4
      vertex 6.13364 4.1 1.0442
      vertex 6.25792 4.1 1.41305
    endloop
  endfacet
  facet normal 0 -1 0
    outer loop
      vertex -5.16625 4.1 0.127841
      vertex -5.5 4.1 2.4
      vertex -5.51014 4.1 0.31016
    endloop
  endfacet
  facet normal 0 -1 0
    outer loop
      vertex 5.5 4.1 2.4
      vertex 5.93297 4.1 0.710686
      vertex 6.13364 4.1 1.0442
    endloop
  endfacet
  facet normal 0 -1 0
    outer loop
      vertex -4.79121 4.1 0.0237122
      vertex -5.5 4.1 2.4
      vertex -5.16625 4.1 0.127841
    endloop
  endfacet
  facet normal 0 -1 0
    outer loop
      vertex 5.5 4.1 2.4
      vertex 5.66529 4.1 0.428108
      vertex 5.93297 4.1 0.710686
    endloop
  endfacet
  facet normal 0 -1 0
    outer loop
      vertex -5.5 4.1 2.4
      vertex -4.79121 4.1 0.0237122
      vertex -4.50244 4.1 0.00805582
    endloop
  endfacet
  facet normal 0 -1 -0
    outer loop
      vertex 5.5 4.1 2.4
      vertex 5.34313 4.1 0.209678
      vertex 5.66529 4.1 0.428108
    endloop
  endfacet
  facet normal 0 -1 0
    outer loop
      vertex 5.5 4.1 2.4
      vertex 4.98155 4.1 0.0656099
      vertex 5.34313 4.1 0.209678
    endloop
  endfacet
  facet normal 0 -1 0
    outer loop
      vertex 4.98155 4.1 0.0656099
      vertex 4.50236 4.1 0.00779515
      vertex 4.59745 4.1 0.00263977
    endloop
  endfacet
  facet normal 0 -1 0
    outer loop
      vertex -4.5 4.1 -5.72205e-06
      vertex 4.50236 4.1 0.00779515
      vertex -4.50244 4.1 0.00805582
    endloop
  endfacet
  facet normal 0 -1 0
    outer loop
      vertex 4.50236 4.1 0.00779515
      vertex -4.5 4.1 -5.72205e-06
      vertex 4.5 4.1 -5.72205e-06
    endloop
  endfacet
  facet normal -0.647391 0 0.762158
    outer loop
      vertex -5.80679 5.9 3.03786
      vertex -5.51014 4.1 3.28984
      vertex -5.51014 5.9 3.28984
    endloop
  endfacet
  facet normal -0.647391 0 0.762158
    outer loop
      vertex -5.51014 4.1 3.28984
      vertex -5.80679 5.9 3.03786
      vertex -5.80679 4.1 3.03786
    endloop
  endfacet
  facet normal -0.796092 0 0.605175
    outer loop
      vertex -6.04234 4.1 2.728
      vertex -5.80679 5.9 3.03786
      vertex -6.04234 5.9 2.728
    endloop
  endfacet
  facet normal -0.796092 0 0.605175
    outer loop
      vertex -5.80679 5.9 3.03786
      vertex -6.04234 4.1 2.728
      vertex -5.80679 4.1 3.03786
    endloop
  endfacet
  facet normal -0.267527 0 -0.96355
    outer loop
      vertex -5.16625 4.1 0.127841
      vertex -4.79121 5.9 0.0237122
      vertex -4.79121 4.1 0.0237122
    endloop
  endfacet
  facet normal -0.267527 0 -0.96355
    outer loop
      vertex -4.79121 5.9 0.0237122
      vertex -5.16625 4.1 0.127841
      vertex -5.16625 5.9 0.127841
    endloop
  endfacet
  facet normal -0.054138 0 -0.998533
    outer loop
      vertex -4.79121 4.1 0.0237122
      vertex -4.50244 5.9 0.00805582
      vertex -4.50244 4.1 0.00805582
    endloop
  endfacet
  facet normal -0.054138 0 -0.998533
    outer loop
      vertex -4.50244 5.9 0.00805582
      vertex -4.79121 4.1 0.0237122
      vertex -4.79121 5.9 0.0237122
    endloop
  endfacet
  facet normal -0.468409 0 -0.883512
    outer loop
      vertex -5.51014 4.1 0.31016
      vertex -5.16625 5.9 0.127841
      vertex -5.16625 4.1 0.127841
    endloop
  endfacet
  facet normal -0.468409 0 -0.883512
    outer loop
      vertex -5.16625 5.9 0.127841
      vertex -5.51014 4.1 0.31016
      vertex -5.51014 5.9 0.31016
    endloop
  endfacet
  facet normal -0.90757 0 -0.419902
    outer loop
      vertex -6.04234 4.1 0.872003
      vertex -6.20578 5.9 1.22526
      vertex -6.04234 5.9 0.872003
    endloop
  endfacet
  facet normal -0.90757 -0 -0.419902
    outer loop
      vertex -6.20578 5.9 1.22526
      vertex -6.04234 4.1 0.872003
      vertex -6.20578 4.1 1.22526
    endloop
  endfacet
  facet normal -1 0 0
    outer loop
      vertex -6.28945 4.1 1.60538
      vertex -6.28945 5.9 1.99461
      vertex -6.28945 5.9 1.60538
    endloop
  endfacet
  facet normal -1 -0 0
    outer loop
      vertex -6.28945 5.9 1.99461
      vertex -6.28945 4.1 1.60538
      vertex -6.28945 4.1 1.99461
    endloop
  endfacet
  facet normal -0.796095 0 -0.605171
    outer loop
      vertex -5.80679 4.1 0.56214
      vertex -6.04234 5.9 0.872003
      vertex -5.80679 5.9 0.56214
    endloop
  endfacet
  facet normal -0.796095 -0 -0.605171
    outer loop
      vertex -6.04234 5.9 0.872003
      vertex -5.80679 4.1 0.56214
      vertex -6.04234 4.1 0.872003
    endloop
  endfacet
  facet normal -0.472417 0 0.881375
    outer loop
      vertex -5.49875 5.9 3.29588
      vertex -5.5 4.25 3.29521
      vertex -5.49875 4.25 3.29588
    endloop
  endfacet
  facet normal -0.468493 -3.82185e-06 0.883467
    outer loop
      vertex -5.51014 5.9 3.28984
      vertex -5.5 4.25 3.29521
      vertex -5.49875 5.9 3.29588
    endloop
  endfacet
  facet normal -0.468008 0 0.883724
    outer loop
      vertex -5.51014 4.1 3.28984
      vertex -5.5 4.25 3.29521
      vertex -5.51014 5.9 3.28984
    endloop
  endfacet
  facet normal -0.468008 0 0.883724
    outer loop
      vertex -5.5 4.25 3.29521
      vertex -5.51014 4.1 3.28984
      vertex -5.5 4.1 3.29521
    endloop
  endfacet
  facet normal -0.976622 0 0.214963
    outer loop
      vertex -6.28945 4.1 1.99461
      vertex -6.20578 5.9 2.37474
      vertex -6.28945 5.9 1.99461
    endloop
  endfacet
  facet normal -0.976622 0 0.214963
    outer loop
      vertex -6.20578 5.9 2.37474
      vertex -6.28945 4.1 1.99461
      vertex -6.20578 4.1 2.37474
    endloop
  endfacet
  facet normal -0.976621 0 -0.214969
    outer loop
      vertex -6.20578 4.1 1.22526
      vertex -6.28945 5.9 1.60538
      vertex -6.20578 5.9 1.22526
    endloop
  endfacet
  facet normal -0.976621 -0 -0.214969
    outer loop
      vertex -6.28945 5.9 1.60538
      vertex -6.20578 4.1 1.22526
      vertex -6.28945 4.1 1.60538
    endloop
  endfacet
  facet normal -0.907571 0 0.419899
    outer loop
      vertex -6.20578 4.1 2.37474
      vertex -6.04234 5.9 2.728
      vertex -6.20578 5.9 2.37474
    endloop
  endfacet
  facet normal -0.907571 0 0.419899
    outer loop
      vertex -6.04234 5.9 2.728
      vertex -6.20578 4.1 2.37474
      vertex -6.04234 4.1 2.728
    endloop
  endfacet
  facet normal -0.647391 0 -0.762158
    outer loop
      vertex -5.80679 4.1 0.56214
      vertex -5.51014 5.9 0.31016
      vertex -5.51014 4.1 0.31016
    endloop
  endfacet
  facet normal -0.647391 0 -0.762158
    outer loop
      vertex -5.51014 5.9 0.31016
      vertex -5.80679 4.1 0.56214
      vertex -5.80679 5.9 0.56214
    endloop
  endfacet
  facet normal -0.46842 0 0.883506
    outer loop
      vertex -0.990985 5.9 6.49999
      vertex -0.666248 4.25 6.67216
      vertex -0.666248 5.9 6.67216
    endloop
  endfacet
  facet normal -0.46842 0 0.883506
    outer loop
      vertex -0.666248 4.25 6.67216
      vertex -0.990985 5.9 6.49999
      vertex -0.990985 4.25 6.49999
    endloop
  endfacet
  facet normal -0.0541329 0 0.998534
    outer loop
      vertex -0.291207 5.9 6.77629
      vertex 0.0974493 4.25 6.79736
      vertex 0.0974493 5.9 6.79736
    endloop
  endfacet
  facet normal -0.0541329 0 0.998534
    outer loop
      vertex 0.0974493 4.25 6.79736
      vertex -0.291207 5.9 6.77629
      vertex -0.291207 4.25 6.77629
    endloop
  endfacet
  facet normal 0.370141 0 0.928976
    outer loop
      vertex 0.48155 5.9 6.73439
      vertex 0.843135 4.25 6.59032
      vertex 0.843135 5.9 6.59032
    endloop
  endfacet
  facet normal 0.370141 0 0.928976
    outer loop
      vertex 0.843135 4.25 6.59032
      vertex 0.48155 5.9 6.73439
      vertex 0.48155 4.25 6.73439
    endloop
  endfacet
  facet normal -0.267529 0 0.96355
    outer loop
      vertex -0.666248 5.9 6.67216
      vertex -0.291207 4.25 6.77629
      vertex -0.291207 5.9 6.77629
    endloop
  endfacet
  facet normal -0.267529 0 0.96355
    outer loop
      vertex -0.291207 4.25 6.77629
      vertex -0.666248 5.9 6.67216
      vertex -0.666248 4.25 6.67216
    endloop
  endfacet
  facet normal 0.161782 0 0.986827
    outer loop
      vertex 0.0974493 5.9 6.79736
      vertex 0.48155 4.25 6.73439
      vertex 0.48155 5.9 6.73439
    endloop
  endfacet
  facet normal 0.161782 0 0.986827
    outer loop
      vertex 0.48155 4.25 6.73439
      vertex 0.0974493 5.9 6.79736
      vertex 0.0974493 4.25 6.79736
    endloop
  endfacet
  facet normal 0.561195 0 0.827684
    outer loop
      vertex 0.843135 5.9 6.59032
      vertex 0.976359 4.25 6.49999
      vertex 0.976359 5.9 6.49999
    endloop
  endfacet
  facet normal 0.561195 0 0.827684
    outer loop
      vertex 0.976359 4.25 6.49999
      vertex 0.843135 5.9 6.59032
      vertex 0.843135 4.25 6.59032
    endloop
  endfacet
  facet normal -0.956927 0 -0.29033
    outer loop
      vertex -5.49875 4.25 3.29588
      vertex -5.5 5.9 3.3
      vertex -5.49875 5.9 3.29588
    endloop
  endfacet
  facet normal -0.956927 -0 -0.29033
    outer loop
      vertex -5.5 5.9 3.3
      vertex -5.49875 4.25 3.29588
      vertex -5.5 4.25 3.3
    endloop
  endfacet
  facet normal -0.95712 0 -0.289693
    outer loop
      vertex -4.5 4.1 -5.72205e-06
      vertex -4.50244 5.9 0.00805582
      vertex -4.5 5.9 -5.72205e-06
    endloop
  endfacet
  facet normal -0.95712 -0 -0.289693
    outer loop
      vertex -4.50244 5.9 0.00805582
      vertex -4.5 4.1 -5.72205e-06
      vertex -4.50244 4.1 0.00805582
    endloop
  endfacet
  facet normal 0.957157 0 -0.289569
    outer loop
      vertex 4.50236 4.1 0.00779515
      vertex 4.5 5.9 -5.72205e-06
      vertex 4.50236 5.9 0.00779515
    endloop
  endfacet
  facet normal 0.957157 0 -0.289569
    outer loop
      vertex 4.5 5.9 -5.72205e-06
      vertex 4.50236 4.1 0.00779515
      vertex 4.5 4.1 -5.72205e-06
    endloop
  endfacet
  facet normal 0.95703 0 -0.289987
    outer loop
      vertex 5.5 4.25 3.3
      vertex 5.49597 5.9 3.2867
      vertex 5.5 5.9 3.3
    endloop
  endfacet
  facet normal 0.95703 0 -0.289987
    outer loop
      vertex 5.49597 5.9 3.2867
      vertex 5.5 4.25 3.3
      vertex 5.49597 4.25 3.2867
    endloop
  endfacet
  facet normal -0.579523 0 0.814956
    outer loop
      vertex -5.5 5.9 3.3
      vertex -1 4.25 6.49999
      vertex -1 5.9 6.49999
    endloop
  endfacet
  facet normal -0.579523 0 0.814956
    outer loop
      vertex -1 4.25 6.49999
      vertex -5.5 5.9 3.3
      vertex -5.5 4.25 3.3
    endloop
  endfacet
  facet normal 0 0 -1
    outer loop
      vertex -4.5 4.1 -5.72205e-06
      vertex 4.5 5.9 -5.72205e-06
      vertex 4.5 4.1 -5.72205e-06
    endloop
  endfacet
  facet normal -0 0 -1
    outer loop
      vertex 4.5 5.9 -5.72205e-06
      vertex -4.5 4.1 -5.72205e-06
      vertex -4.5 5.9 -5.72205e-06
    endloop
  endfacet
  facet normal 0.579523 0 0.814956
    outer loop
      vertex 1 5.9 6.49999
      vertex 5.5 4.25 3.3
      vertex 5.5 5.9 3.3
    endloop
  endfacet
  facet normal 0.579523 0 0.814956
    outer loop
      vertex 5.5 4.25 3.3
      vertex 1 5.9 6.49999
      vertex 1 4.25 6.49999
    endloop
  endfacet
  facet normal -0 0 1
    outer loop
      vertex -1 5.9 6.49999
      vertex -0.990985 4.25 6.49999
      vertex -0.990985 5.9 6.49999
    endloop
  endfacet
  facet normal 0 0 1
    outer loop
      vertex -0.990985 4.25 6.49999
      vertex -1 5.9 6.49999
      vertex -1 4.25 6.49999
    endloop
  endfacet
  facet normal -0 0 1
    outer loop
      vertex 0.976359 5.9 6.49999
      vertex 1 4.25 6.49999
      vertex 1 5.9 6.49999
    endloop
  endfacet
  facet normal 0 0 1
    outer loop
      vertex 1 4.25 6.49999
      vertex 0.976359 5.9 6.49999
      vertex 0.976359 4.25 6.49999
    endloop
  endfacet
  facet normal 0.161782 0 -0.986826
    outer loop
      vertex 4.59745 -5.9 0.00263977
      vertex 4.98155 -4.1 0.0656099
      vertex 4.98155 -5.9 0.0656099
    endloop
  endfacet
  facet normal 0.161782 0 -0.986826
    outer loop
      vertex 4.98155 -4.1 0.0656099
      vertex 4.59745 -5.9 0.00263977
      vertex 4.59745 -4.1 0.00263977
    endloop
  endfacet
  facet normal 0.947653 -0 0.319301
    outer loop
      vertex 6.13364 -5.9 2.5558
      vertex 6.25792 -4.1 2.18695
      vertex 6.13364 -4.1 2.5558
    endloop
  endfacet
  facet normal 0.947653 0 0.319301
    outer loop
      vertex 6.25792 -4.1 2.18695
      vertex 6.13364 -5.9 2.5558
      vertex 6.25792 -5.9 2.18695
    endloop
  endfacet
  facet normal 0.994139 -0 0.108111
    outer loop
      vertex 6.25792 -5.9 2.18695
      vertex 6.3 -4.1 1.8
      vertex 6.25792 -4.1 2.18695
    endloop
  endfacet
  facet normal 0.994139 0 0.108111
    outer loop
      vertex 6.3 -4.1 1.8
      vertex 6.25792 -5.9 2.18695
      vertex 6.3 -5.9 1.8
    endloop
  endfacet
  facet normal 0.370141 0 -0.928975
    outer loop
      vertex 4.98155 -5.9 0.0656099
      vertex 5.34313 -4.1 0.209678
      vertex 5.34313 -5.9 0.209678
    endloop
  endfacet
  facet normal 0.370141 0 -0.928975
    outer loop
      vertex 5.34313 -4.1 0.209678
      vertex 4.98155 -5.9 0.0656099
      vertex 4.98155 -4.1 0.0656099
    endloop
  endfacet
  facet normal 0.725985 0 -0.68771
    outer loop
      vertex 5.93297 -5.9 0.710686
      vertex 5.66529 -4.1 0.428108
      vertex 5.93297 -4.1 0.710686
    endloop
  endfacet
  facet normal 0.725985 0 -0.68771
    outer loop
      vertex 5.66529 -4.1 0.428108
      vertex 5.93297 -5.9 0.710686
      vertex 5.66529 -5.9 0.428108
    endloop
  endfacet
  facet normal 0.561189 -0 0.827688
    outer loop
      vertex 5.5 -4.25 3.28396
      vertex 5.66529 -4.1 3.17189
      vertex 5.5 -4.1 3.28396
    endloop
  endfacet
  facet normal 0.561189 0 0.827688
    outer loop
      vertex 5.66529 -4.1 3.17189
      vertex 5.5 -4.25 3.28396
      vertex 5.66529 -5.9 3.17189
    endloop
  endfacet
  facet normal 0.562254 -0 0.826965
    outer loop
      vertex 5.49597 -5.9 3.2867
      vertex 5.5 -4.25 3.28396
      vertex 5.49597 -4.25 3.2867
    endloop
  endfacet
  facet normal 0.561214 3.71059e-06 0.82767
    outer loop
      vertex 5.5 -4.25 3.28396
      vertex 5.49597 -5.9 3.2867
      vertex 5.66529 -5.9 3.17189
    endloop
  endfacet
  facet normal -0.0541363 0 -0.998534
    outer loop
      vertex 4.50236 -5.9 0.00779515
      vertex 4.59745 -4.1 0.00263977
      vertex 4.59745 -5.9 0.00263977
    endloop
  endfacet
  facet normal -0.0541363 0 -0.998534
    outer loop
      vertex 4.59745 -4.1 0.00263977
      vertex 4.50236 -5.9 0.00779515
      vertex 4.50236 -4.1 0.00779515
    endloop
  endfacet
  facet normal 0.856856 0 -0.515556
    outer loop
      vertex 6.13364 -5.9 1.0442
      vertex 5.93297 -4.1 0.710686
      vertex 6.13364 -4.1 1.0442
    endloop
  endfacet
  facet normal 0.856856 0 -0.515556
    outer loop
      vertex 5.93297 -4.1 0.710686
      vertex 6.13364 -5.9 1.0442
      vertex 5.93297 -5.9 0.710686
    endloop
  endfacet
  facet normal 0.856853 -0 0.515561
    outer loop
      vertex 5.93297 -5.9 2.88931
      vertex 6.13364 -4.1 2.5558
      vertex 5.93297 -4.1 2.88931
    endloop
  endfacet
  facet normal 0.856853 0 0.515561
    outer loop
      vertex 6.13364 -4.1 2.5558
      vertex 5.93297 -5.9 2.88931
      vertex 6.13364 -5.9 2.5558
    endloop
  endfacet
  facet normal 0.725988 -0 0.687708
    outer loop
      vertex 5.66529 -5.9 3.17189
      vertex 5.93297 -4.1 2.88931
      vertex 5.66529 -4.1 3.17189
    endloop
  endfacet
  facet normal 0.725988 0 0.687708
    outer loop
      vertex 5.93297 -4.1 2.88931
      vertex 5.66529 -5.9 3.17189
      vertex 5.93297 -5.9 2.88931
    endloop
  endfacet
  facet normal 0 1 0
    outer loop
      vertex 5.5 -4.1 2.4
      vertex 5.66529 -4.1 3.17189
      vertex 5.93297 -4.1 2.88931
    endloop
  endfacet
  facet normal 0 1 0
    outer loop
      vertex 5.5 -4.1 2.4
      vertex 5.93297 -4.1 2.88931
      vertex 6.13364 -4.1 2.5558
    endloop
  endfacet
  facet normal 0 1 0
    outer loop
      vertex 5.66529 -4.1 3.17189
      vertex 5.5 -4.1 2.4
      vertex 5.5 -4.1 3.28396
    endloop
  endfacet
  facet normal 0 1 -0
    outer loop
      vertex -4.50244 -4.1 0.00805582
      vertex -5.5 -4.1 2.4
      vertex 5.5 -4.1 2.4
    endloop
  endfacet
  facet normal 0 1 0
    outer loop
      vertex 6.25792 -4.1 2.18695
      vertex 5.5 -4.1 2.4
      vertex 6.13364 -4.1 2.5558
    endloop
  endfacet
  facet normal 0 1 0
    outer loop
      vertex 6.3 -4.1 1.8
      vertex 5.5 -4.1 2.4
      vertex 6.25792 -4.1 2.18695
    endloop
  endfacet
  facet normal -0 1 0
    outer loop
      vertex -4.50244 -4.1 0.00805582
      vertex 5.5 -4.1 2.4
      vertex 4.50236 -4.1 0.00779515
    endloop
  endfacet
  facet normal 0 1 -0
    outer loop
      vertex 6.25792 -4.1 1.41305
      vertex 5.5 -4.1 2.4
      vertex 6.3 -4.1 1.8
    endloop
  endfacet
  facet normal -0 1 -0
    outer loop
      vertex -4.79121 -4.1 0.0237122
      vertex -5.5 -4.1 2.4
      vertex -4.50244 -4.1 0.00805582
    endloop
  endfacet
  facet normal 0 1 -0
    outer loop
      vertex 6.13364 -4.1 1.0442
      vertex 5.5 -4.1 2.4
      vertex 6.25792 -4.1 1.41305
    endloop
  endfacet
  facet normal 0 1 0
    outer loop
      vertex -5.5 -4.1 2.4
      vertex -6.28945 -4.1 1.99461
      vertex -6.20578 -4.1 2.37474
    endloop
  endfacet
  facet normal 0 1 -0
    outer loop
      vertex 5.93297 -4.1 0.710686
      vertex 5.5 -4.1 2.4
      vertex 6.13364 -4.1 1.0442
    endloop
  endfacet
  facet normal 0 1 0
    outer loop
      vertex -5.5 -4.1 2.4
      vertex -6.28945 -4.1 1.60538
      vertex -6.28945 -4.1 1.99461
    endloop
  endfacet
  facet normal 0 1 -0
    outer loop
      vertex 5.66529 -4.1 0.428108
      vertex 5.5 -4.1 2.4
      vertex 5.93297 -4.1 0.710686
    endloop
  endfacet
  facet normal 0 1 0
    outer loop
      vertex -5.5 -4.1 2.4
      vertex -6.20578 -4.1 1.22526
      vertex -6.28945 -4.1 1.60538
    endloop
  endfacet
  facet normal 0 1 0
    outer loop
      vertex 5.34313 -4.1 0.209678
      vertex 5.5 -4.1 2.4
      vertex 5.66529 -4.1 0.428108
    endloop
  endfacet
  facet normal 0 1 0
    outer loop
      vertex -5.5 -4.1 2.4
      vertex -6.04234 -4.1 0.872003
      vertex -6.20578 -4.1 1.22526
    endloop
  endfacet
  facet normal 0 1 0
    outer loop
      vertex 4.98155 -4.1 0.0656099
      vertex 5.5 -4.1 2.4
      vertex 5.34313 -4.1 0.209678
    endloop
  endfacet
  facet normal 0 1 0
    outer loop
      vertex -5.5 -4.1 2.4
      vertex -5.80679 -4.1 0.56214
      vertex -6.04234 -4.1 0.872003
    endloop
  endfacet
  facet normal 0 1 0
    outer loop
      vertex 5.5 -4.1 2.4
      vertex 4.98155 -4.1 0.0656099
      vertex 4.50236 -4.1 0.00779515
    endloop
  endfacet
  facet normal 0 1 0
    outer loop
      vertex -5.5 -4.1 2.4
      vertex -5.51014 -4.1 0.31016
      vertex -5.80679 -4.1 0.56214
    endloop
  endfacet
  facet normal 0 1 0
    outer loop
      vertex -5.5 -4.1 2.4
      vertex -4.79121 -4.1 0.0237122
      vertex -5.16625 -4.1 0.127841
    endloop
  endfacet
  facet normal 0 1 0
    outer loop
      vertex -5.5 -4.1 2.4
      vertex -5.16625 -4.1 0.127841
      vertex -5.51014 -4.1 0.31016
    endloop
  endfacet
  facet normal -0 1 0
    outer loop
      vertex 4.50236 -4.1 0.00779515
      vertex 4.98155 -4.1 0.0656099
      vertex 4.59745 -4.1 0.00263977
    endloop
  endfacet
  facet normal 0 1 -0
    outer loop
      vertex -5.5 -4.1 2.4
      vertex -5.51014 -4.1 3.28984
      vertex -5.5 -4.1 3.29521
    endloop
  endfacet
  facet normal 0 1 0
    outer loop
      vertex -5.51014 -4.1 3.28984
      vertex -5.5 -4.1 2.4
      vertex -5.80679 -4.1 3.03786
    endloop
  endfacet
  facet normal 0 1 0
    outer loop
      vertex -5.80679 -4.1 3.03786
      vertex -5.5 -4.1 2.4
      vertex -6.04234 -4.1 2.728
    endloop
  endfacet
  facet normal 0 1 0
    outer loop
      vertex -6.04234 -4.1 2.728
      vertex -5.5 -4.1 2.4
      vertex -6.20578 -4.1 2.37474
    endloop
  endfacet
  facet normal 0 1 -0
    outer loop
      vertex 4.5 -4.1 -5.72205e-06
      vertex -4.50244 -4.1 0.00805582
      vertex 4.50236 -4.1 0.00779515
    endloop
  endfacet
  facet normal 0 1 0
    outer loop
      vertex -4.50244 -4.1 0.00805582
      vertex 4.5 -4.1 -5.72205e-06
      vertex -4.5 -4.1 -5.72205e-06
    endloop
  endfacet
  facet normal 0.947653 0 -0.319301
    outer loop
      vertex 6.25792 -5.9 1.41305
      vertex 6.13364 -4.1 1.0442
      vertex 6.25792 -4.1 1.41305
    endloop
  endfacet
  facet normal 0.947653 0 -0.319301
    outer loop
      vertex 6.13364 -4.1 1.0442
      vertex 6.25792 -5.9 1.41305
      vertex 6.13364 -5.9 1.0442
    endloop
  endfacet
  facet normal 0.561187 0 -0.827689
    outer loop
      vertex 5.34313 -5.9 0.209678
      vertex 5.66529 -4.1 0.428108
      vertex 5.66529 -5.9 0.428108
    endloop
  endfacet
  facet normal 0.561187 0 -0.827689
    outer loop
      vertex 5.66529 -4.1 0.428108
      vertex 5.34313 -5.9 0.209678
      vertex 5.34313 -4.1 0.209678
    endloop
  endfacet
  facet normal 0.994139 0 -0.108111
    outer loop
      vertex 6.3 -5.9 1.8
      vertex 6.25792 -4.1 1.41305
      vertex 6.3 -4.1 1.8
    endloop
  endfacet
  facet normal 0.994139 0 -0.108111
    outer loop
      vertex 6.25792 -4.1 1.41305
      vertex 6.3 -5.9 1.8
      vertex 6.25792 -5.9 1.41305
    endloop
  endfacet
  facet normal 0 -1 0
    outer loop
      vertex -4.5 -5.9 -5.72205e-06
      vertex 4.50236 -5.9 0.00779515
      vertex -4.50244 -5.9 0.00805582
    endloop
  endfacet
  facet normal 0 -1 0
    outer loop
      vertex 4.50236 -5.9 0.00779515
      vertex -4.5 -5.9 -5.72205e-06
      vertex 4.5 -5.9 -5.72205e-06
    endloop
  endfacet
  facet normal 0 -1 0
    outer loop
      vertex -4.50244 -5.9 0.00805582
      vertex -0.990985 -5.9 6.49999
      vertex -1 -5.9 6.49999
    endloop
  endfacet
  facet normal 0 -1 -0
    outer loop
      vertex -0.990985 -5.9 6.49999
      vertex -4.50244 -5.9 0.00805582
      vertex 0.976359 -5.9 6.49999
    endloop
  endfacet
  facet normal 0 -1 0
    outer loop
      vertex -5.49875 -5.9 3.29588
      vertex -1 -5.9 6.49999
      vertex -5.5 -5.9 3.3
    endloop
  endfacet
  facet normal 0 -1 0
    outer loop
      vertex -4.50244 -5.9 0.00805582
      vertex -1 -5.9 6.49999
      vertex -5.49875 -5.9 3.29588
    endloop
  endfacet
  facet normal 0 -1 0
    outer loop
      vertex 4.50236 -5.9 0.00779515
      vertex 0.976359 -5.9 6.49999
      vertex -4.50244 -5.9 0.00805582
    endloop
  endfacet
  facet normal 0 -1 0
    outer loop
      vertex -5.80679 -5.9 3.03786
      vertex -5.49875 -5.9 3.29588
      vertex -5.51014 -5.9 3.28984
    endloop
  endfacet
  facet normal 0 -1 0
    outer loop
      vertex 1 -5.9 6.49999
      vertex 5.49597 -5.9 3.2867
      vertex 5.5 -5.9 3.3
    endloop
  endfacet
  facet normal 0 -1 0
    outer loop
      vertex 1 -5.9 6.49999
      vertex 4.50236 -5.9 0.00779515
      vertex 5.49597 -5.9 3.2867
    endloop
  endfacet
  facet normal 0 -1 -0
    outer loop
      vertex -5.49875 -5.9 3.29588
      vertex -5.80679 -5.9 3.03786
      vertex -4.50244 -5.9 0.00805582
    endloop
  endfacet
  facet normal 0 -1 0
    outer loop
      vertex 0.976359 -5.9 6.49999
      vertex 4.50236 -5.9 0.00779515
      vertex 1 -5.9 6.49999
    endloop
  endfacet
  facet normal 0 -1 0
    outer loop
      vertex -4.50244 -5.9 0.00805582
      vertex -5.80679 -5.9 3.03786
      vertex -6.04234 -5.9 2.728
    endloop
  endfacet
  facet normal -0 -1 0
    outer loop
      vertex 6.13364 -5.9 2.5558
      vertex 5.49597 -5.9 3.2867
      vertex 4.50236 -5.9 0.00779515
    endloop
  endfacet
  facet normal 0 -1 0
    outer loop
      vertex -4.50244 -5.9 0.00805582
      vertex -6.04234 -5.9 2.728
      vertex -6.20578 -5.9 2.37474
    endloop
  endfacet
  facet normal 0 -1 0
    outer loop
      vertex 5.49597 -5.9 3.2867
      vertex 5.93297 -5.9 2.88931
      vertex 5.66529 -5.9 3.17189
    endloop
  endfacet
  facet normal 0 -1 0
    outer loop
      vertex -4.50244 -5.9 0.00805582
      vertex -6.20578 -5.9 2.37474
      vertex -6.28945 -5.9 1.99461
    endloop
  endfacet
  facet normal 0 -1 0
    outer loop
      vertex 5.49597 -5.9 3.2867
      vertex 6.13364 -5.9 2.5558
      vertex 5.93297 -5.9 2.88931
    endloop
  endfacet
  facet normal 0 -1 0
    outer loop
      vertex -4.50244 -5.9 0.00805582
      vertex -6.28945 -5.9 1.99461
      vertex -6.28945 -5.9 1.60538
    endloop
  endfacet
  facet normal 0 -1 -0
    outer loop
      vertex 6.13364 -5.9 2.5558
      vertex 4.50236 -5.9 0.00779515
      vertex 6.25792 -5.9 2.18695
    endloop
  endfacet
  facet normal 0 -1 0
    outer loop
      vertex -4.50244 -5.9 0.00805582
      vertex -6.28945 -5.9 1.60538
      vertex -6.20578 -5.9 1.22526
    endloop
  endfacet
  facet normal 0 -1 -0
    outer loop
      vertex 6.25792 -5.9 2.18695
      vertex 4.50236 -5.9 0.00779515
      vertex 6.3 -5.9 1.8
    endloop
  endfacet
  facet normal 0 -1 0
    outer loop
      vertex -4.50244 -5.9 0.00805582
      vertex -6.20578 -5.9 1.22526
      vertex -6.04234 -5.9 0.872003
    endloop
  endfacet
  facet normal 0 -1 0
    outer loop
      vertex 6.3 -5.9 1.8
      vertex 4.50236 -5.9 0.00779515
      vertex 6.25792 -5.9 1.41305
    endloop
  endfacet
  facet normal 0 -1 0
    outer loop
      vertex -4.50244 -5.9 0.00805582
      vertex -6.04234 -5.9 0.872003
      vertex -5.80679 -5.9 0.56214
    endloop
  endfacet
  facet normal 0 -1 0
    outer loop
      vertex 6.25792 -5.9 1.41305
      vertex 4.50236 -5.9 0.00779515
      vertex 6.13364 -5.9 1.0442
    endloop
  endfacet
  facet normal 0 -1 0
    outer loop
      vertex -4.50244 -5.9 0.00805582
      vertex -5.80679 -5.9 0.56214
      vertex -5.51014 -5.9 0.31016
    endloop
  endfacet
  facet normal 0 -1 0
    outer loop
      vertex 6.13364 -5.9 1.0442
      vertex 4.50236 -5.9 0.00779515
      vertex 5.93297 -5.9 0.710686
    endloop
  endfacet
  facet normal 0 -1 0
    outer loop
      vertex -4.50244 -5.9 0.00805582
      vertex -5.51014 -5.9 0.31016
      vertex -5.16625 -5.9 0.127841
    endloop
  endfacet
  facet normal 0 -1 0
    outer loop
      vertex 5.93297 -5.9 0.710686
      vertex 4.50236 -5.9 0.00779515
      vertex 5.66529 -5.9 0.428108
    endloop
  endfacet
  facet normal 0 -1 0
    outer loop
      vertex -4.50244 -5.9 0.00805582
      vertex -5.16625 -5.9 0.127841
      vertex -4.79121 -5.9 0.0237122
    endloop
  endfacet
  facet normal 0 -1 0
    outer loop
      vertex 5.66529 -5.9 0.428108
      vertex 4.50236 -5.9 0.00779515
      vertex 5.34313 -5.9 0.209678
    endloop
  endfacet
  facet normal 0 -1 0
    outer loop
      vertex 5.34313 -5.9 0.209678
      vertex 4.50236 -5.9 0.00779515
      vertex 4.98155 -5.9 0.0656099
    endloop
  endfacet
  facet normal 0 -1 0
    outer loop
      vertex 4.98155 -5.9 0.0656099
      vertex 4.50236 -5.9 0.00779515
      vertex 4.59745 -5.9 0.00263977
    endloop
  endfacet
  facet normal 0 -1 0
    outer loop
      vertex 0.976359 -5.9 6.49999
      vertex 0.0974493 -5.9 6.79736
      vertex -0.291207 -5.9 6.77629
    endloop
  endfacet
  facet normal 0 -1 0
    outer loop
      vertex 0.976359 -5.9 6.49999
      vertex -0.291207 -5.9 6.77629
      vertex -0.666248 -5.9 6.67216
    endloop
  endfacet
  facet normal 0 -1 0
    outer loop
      vertex 0.0974493 -5.9 6.79736
      vertex 0.976359 -5.9 6.49999
      vertex 0.48155 -5.9 6.73439
    endloop
  endfacet
  facet normal 0 -1 0
    outer loop
      vertex 0.976359 -5.9 6.49999
      vertex -0.666248 -5.9 6.67216
      vertex -0.990985 -5.9 6.49999
    endloop
  endfacet
  facet normal 0 -1 0
    outer loop
      vertex 0.48155 -5.9 6.73439
      vertex 0.976359 -5.9 6.49999
      vertex 0.843135 -5.9 6.59032
    endloop
  endfacet
  facet normal -0.647391 0 0.762158
    outer loop
      vertex -5.80679 -4.1 3.03786
      vertex -5.51014 -5.9 3.28984
      vertex -5.51014 -4.1 3.28984
    endloop
  endfacet
  facet normal -0.647391 0 0.762158
    outer loop
      vertex -5.51014 -5.9 3.28984
      vertex -5.80679 -4.1 3.03786
      vertex -5.80679 -5.9 3.03786
    endloop
  endfacet
  facet normal -0.796092 0 0.605175
    outer loop
      vertex -6.04234 -5.9 2.728
      vertex -5.80679 -4.1 3.03786
      vertex -6.04234 -4.1 2.728
    endloop
  endfacet
  facet normal -0.796092 0 0.605175
    outer loop
      vertex -5.80679 -4.1 3.03786
      vertex -6.04234 -5.9 2.728
      vertex -5.80679 -5.9 3.03786
    endloop
  endfacet
  facet normal -0.267527 0 -0.96355
    outer loop
      vertex -5.16625 -5.9 0.127841
      vertex -4.79121 -4.1 0.0237122
      vertex -4.79121 -5.9 0.0237122
    endloop
  endfacet
  facet normal -0.267527 0 -0.96355
    outer loop
      vertex -4.79121 -4.1 0.0237122
      vertex -5.16625 -5.9 0.127841
      vertex -5.16625 -4.1 0.127841
    endloop
  endfacet
  facet normal -0.054138 0 -0.998533
    outer loop
      vertex -4.79121 -5.9 0.0237122
      vertex -4.50244 -4.1 0.00805582
      vertex -4.50244 -5.9 0.00805582
    endloop
  endfacet
  facet normal -0.054138 0 -0.998533
    outer loop
      vertex -4.50244 -4.1 0.00805582
      vertex -4.79121 -5.9 0.0237122
      vertex -4.79121 -4.1 0.0237122
    endloop
  endfacet
  facet normal -0.468409 0 -0.883512
    outer loop
      vertex -5.51014 -5.9 0.31016
      vertex -5.16625 -4.1 0.127841
      vertex -5.16625 -5.9 0.127841
    endloop
  endfacet
  facet normal -0.468409 0 -0.883512
    outer loop
      vertex -5.16625 -4.1 0.127841
      vertex -5.51014 -5.9 0.31016
      vertex -5.51014 -4.1 0.31016
    endloop
  endfacet
  facet normal -0.90757 0 -0.419902
    outer loop
      vertex -6.04234 -5.9 0.872003
      vertex -6.20578 -4.1 1.22526
      vertex -6.04234 -4.1 0.872003
    endloop
  endfacet
  facet normal -0.90757 -0 -0.419902
    outer loop
      vertex -6.20578 -4.1 1.22526
      vertex -6.04234 -5.9 0.872003
      vertex -6.20578 -5.9 1.22526
    endloop
  endfacet
  facet normal -1 0 0
    outer loop
      vertex -6.28945 -5.9 1.60538
      vertex -6.28945 -4.1 1.99461
      vertex -6.28945 -4.1 1.60538
    endloop
  endfacet
  facet normal -1 -0 0
    outer loop
      vertex -6.28945 -4.1 1.99461
      vertex -6.28945 -5.9 1.60538
      vertex -6.28945 -5.9 1.99461
    endloop
  endfacet
  facet normal -0.796095 0 -0.605171
    outer loop
      vertex -5.80679 -5.9 0.56214
      vertex -6.04234 -4.1 0.872003
      vertex -5.80679 -4.1 0.56214
    endloop
  endfacet
  facet normal -0.796095 -0 -0.605171
    outer loop
      vertex -6.04234 -4.1 0.872003
      vertex -5.80679 -5.9 0.56214
      vertex -6.04234 -5.9 0.872003
    endloop
  endfacet
  facet normal -0.468008 0 0.883724
    outer loop
      vertex -5.5 -4.1 3.29521
      vertex -5.51014 -4.1 3.28984
      vertex -5.5 -4.25 3.29521
    endloop
  endfacet
  facet normal -0.472417 0 0.881375
    outer loop
      vertex -5.5 -4.25 3.29521
      vertex -5.49875 -5.9 3.29588
      vertex -5.49875 -4.25 3.29588
    endloop
  endfacet
  facet normal -0.468008 0 0.883724
    outer loop
      vertex -5.51014 -5.9 3.28984
      vertex -5.5 -4.25 3.29521
      vertex -5.51014 -4.1 3.28984
    endloop
  endfacet
  facet normal -0.468493 3.82185e-06 0.883467
    outer loop
      vertex -5.5 -4.25 3.29521
      vertex -5.51014 -5.9 3.28984
      vertex -5.49875 -5.9 3.29588
    endloop
  endfacet
  facet normal -0.976622 0 0.214963
    outer loop
      vertex -6.28945 -5.9 1.99461
      vertex -6.20578 -4.1 2.37474
      vertex -6.28945 -4.1 1.99461
    endloop
  endfacet
  facet normal -0.976622 0 0.214963
    outer loop
      vertex -6.20578 -4.1 2.37474
      vertex -6.28945 -5.9 1.99461
      vertex -6.20578 -5.9 2.37474
    endloop
  endfacet
  facet normal -0.976621 0 -0.214969
    outer loop
      vertex -6.20578 -5.9 1.22526
      vertex -6.28945 -4.1 1.60538
      vertex -6.20578 -4.1 1.22526
    endloop
  endfacet
  facet normal -0.976621 -0 -0.214969
    outer loop
      vertex -6.28945 -4.1 1.60538
      vertex -6.20578 -5.9 1.22526
      vertex -6.28945 -5.9 1.60538
    endloop
  endfacet
  facet normal -0.907571 0 0.419899
    outer loop
      vertex -6.20578 -5.9 2.37474
      vertex -6.04234 -4.1 2.728
      vertex -6.20578 -4.1 2.37474
    endloop
  endfacet
  facet normal -0.907571 0 0.419899
    outer loop
      vertex -6.04234 -4.1 2.728
      vertex -6.20578 -5.9 2.37474
      vertex -6.04234 -5.9 2.728
    endloop
  endfacet
  facet normal -0.647391 0 -0.762158
    outer loop
      vertex -5.80679 -5.9 0.56214
      vertex -5.51014 -4.1 0.31016
      vertex -5.51014 -5.9 0.31016
    endloop
  endfacet
  facet normal -0.647391 0 -0.762158
    outer loop
      vertex -5.51014 -4.1 0.31016
      vertex -5.80679 -5.9 0.56214
      vertex -5.80679 -4.1 0.56214
    endloop
  endfacet
  facet normal -0.46842 0 0.883506
    outer loop
      vertex -0.990985 -4.25 6.49999
      vertex -0.666248 -5.9 6.67216
      vertex -0.666248 -4.25 6.67216
    endloop
  endfacet
  facet normal -0.46842 0 0.883506
    outer loop
      vertex -0.666248 -5.9 6.67216
      vertex -0.990985 -4.25 6.49999
      vertex -0.990985 -5.9 6.49999
    endloop
  endfacet
  facet normal -0.0541329 0 0.998534
    outer loop
      vertex -0.291207 -4.25 6.77629
      vertex 0.0974493 -5.9 6.79736
      vertex 0.0974493 -4.25 6.79736
    endloop
  endfacet
  facet normal -0.0541329 0 0.998534
    outer loop
      vertex 0.0974493 -5.9 6.79736
      vertex -0.291207 -4.25 6.77629
      vertex -0.291207 -5.9 6.77629
    endloop
  endfacet
  facet normal 0.370141 0 0.928976
    outer loop
      vertex 0.48155 -4.25 6.73439
      vertex 0.843135 -5.9 6.59032
      vertex 0.843135 -4.25 6.59032
    endloop
  endfacet
  facet normal 0.370141 0 0.928976
    outer loop
      vertex 0.843135 -5.9 6.59032
      vertex 0.48155 -4.25 6.73439
      vertex 0.48155 -5.9 6.73439
    endloop
  endfacet
  facet normal -0.267529 0 0.96355
    outer loop
      vertex -0.666248 -4.25 6.67216
      vertex -0.291207 -5.9 6.77629
      vertex -0.291207 -4.25 6.77629
    endloop
  endfacet
  facet normal -0.267529 0 0.96355
    outer loop
      vertex -0.291207 -5.9 6.77629
      vertex -0.666248 -4.25 6.67216
      vertex -0.666248 -5.9 6.67216
    endloop
  endfacet
  facet normal 0.161782 0 0.986827
    outer loop
      vertex 0.0974493 -4.25 6.79736
      vertex 0.48155 -5.9 6.73439
      vertex 0.48155 -4.25 6.73439
    endloop
  endfacet
  facet normal 0.161782 0 0.986827
    outer loop
      vertex 0.48155 -5.9 6.73439
      vertex 0.0974493 -4.25 6.79736
      vertex 0.0974493 -5.9 6.79736
    endloop
  endfacet
  facet normal 0.561195 0 0.827684
    outer loop
      vertex 0.843135 -4.25 6.59032
      vertex 0.976359 -5.9 6.49999
      vertex 0.976359 -4.25 6.49999
    endloop
  endfacet
  facet normal 0.561195 0 0.827684
    outer loop
      vertex 0.976359 -5.9 6.49999
      vertex 0.843135 -4.25 6.59032
      vertex 0.843135 -5.9 6.59032
    endloop
  endfacet
  facet normal -0.956927 0 -0.29033
    outer loop
      vertex -5.49875 -5.9 3.29588
      vertex -5.5 -4.25 3.3
      vertex -5.49875 -4.25 3.29588
    endloop
  endfacet
  facet normal -0.956927 -0 -0.29033
    outer loop
      vertex -5.5 -4.25 3.3
      vertex -5.49875 -5.9 3.29588
      vertex -5.5 -5.9 3.3
    endloop
  endfacet
  facet normal -0.95712 0 -0.289693
    outer loop
      vertex -4.5 -5.9 -5.72205e-06
      vertex -4.50244 -4.1 0.00805582
      vertex -4.5 -4.1 -5.72205e-06
    endloop
  endfacet
  facet normal -0.95712 -0 -0.289693
    outer loop
      vertex -4.50244 -4.1 0.00805582
      vertex -4.5 -5.9 -5.72205e-06
      vertex -4.50244 -5.9 0.00805582
    endloop
  endfacet
  facet normal 0.957157 0 -0.289569
    outer loop
      vertex 4.50236 -5.9 0.00779515
      vertex 4.5 -4.1 -5.72205e-06
      vertex 4.50236 -4.1 0.00779515
    endloop
  endfacet
  facet normal 0.957157 0 -0.289569
    outer loop
      vertex 4.5 -4.1 -5.72205e-06
      vertex 4.50236 -5.9 0.00779515
      vertex 4.5 -5.9 -5.72205e-06
    endloop
  endfacet
  facet normal 0.95703 0 -0.289987
    outer loop
      vertex 5.5 -5.9 3.3
      vertex 5.49597 -4.25 3.2867
      vertex 5.5 -4.25 3.3
    endloop
  endfacet
  facet normal 0.95703 0 -0.289987
    outer loop
      vertex 5.49597 -4.25 3.2867
      vertex 5.5 -5.9 3.3
      vertex 5.49597 -5.9 3.2867
    endloop
  endfacet
  facet normal -0.579523 0 0.814956
    outer loop
      vertex -5.5 -4.25 3.3
      vertex -1 -5.9 6.49999
      vertex -1 -4.25 6.49999
    endloop
  endfacet
  facet normal -0.579523 0 0.814956
    outer loop
      vertex -1 -5.9 6.49999
      vertex -5.5 -4.25 3.3
      vertex -5.5 -5.9 3.3
    endloop
  endfacet
  facet normal 0 0 -1
    outer loop
      vertex -4.5 -5.9 -5.72205e-06
      vertex 4.5 -4.1 -5.72205e-06
      vertex 4.5 -5.9 -5.72205e-06
    endloop
  endfacet
  facet normal -0 0 -1
    outer loop
      vertex 4.5 -4.1 -5.72205e-06
      vertex -4.5 -5.9 -5.72205e-06
      vertex -4.5 -4.1 -5.72205e-06
    endloop
  endfacet
  facet normal 0.579523 0 0.814956
    outer loop
      vertex 1 -4.25 6.49999
      vertex 5.5 -5.9 3.3
      vertex 5.5 -4.25 3.3
    endloop
  endfacet
  facet normal 0.579523 0 0.814956
    outer loop
      vertex 5.5 -5.9 3.3
      vertex 1 -4.25 6.49999
      vertex 1 -5.9 6.49999
    endloop
  endfacet
  facet normal -0 0 1
    outer loop
      vertex -1 -4.25 6.49999
      vertex -0.990985 -5.9 6.49999
      vertex -0.990985 -4.25 6.49999
    endloop
  endfacet
  facet normal 0 0 1
    outer loop
      vertex -0.990985 -5.9 6.49999
      vertex -1 -4.25 6.49999
      vertex -1 -5.9 6.49999
    endloop
  endfacet
  facet normal -0 0 1
    outer loop
      vertex 0.976359 -4.25 6.49999
      vertex 1 -5.9 6.49999
      vertex 1 -4.25 6.49999
    endloop
  endfacet
  facet normal 0 0 1
    outer loop
      vertex 1 -5.9 6.49999
      vertex 0.976359 -4.25 6.49999
      vertex 0.976359 -5.9 6.49999
    endloop
  endfacet
  facet normal 1 0 0
    outer loop
      vertex 5.5 4.25 11.4
      vertex 5.5 4.2 11.2325
      vertex 5.5 4.25 11.2325
    endloop
  endfacet
  facet normal 1 0 0
    outer loop
      vertex 5.5 -4.2 9.54017
      vertex 5.5 4.2 9.54017
      vertex 5.5 4.2 11.2325
    endloop
  endfacet
  facet normal 1 0 0
    outer loop
      vertex 5.5 4.1 3.28396
      vertex 5.5 -4.1 3.28396
      vertex 5.5 4.1 2.4
    endloop
  endfacet
  facet normal 1 0 0
    outer loop
      vertex 5.5 4.2 9.54017
      vertex 5.5 -4.2 9.54017
      vertex 5.5 4.1 3.28396
    endloop
  endfacet
  facet normal 1 0 0
    outer loop
      vertex 5.5 -4.2 11.2325
      vertex 5.5 4.2 11.2325
      vertex 5.5 4.25 11.4
    endloop
  endfacet
  facet normal 1 0 0
    outer loop
      vertex 5.5 4.2 11.2325
      vertex 5.5 -4.2 11.2325
      vertex 5.5 -4.2 9.54017
    endloop
  endfacet
  facet normal 1 -0 0
    outer loop
      vertex 5.5 -4.25 11.4
      vertex 5.5 -4.2 11.2325
      vertex 5.5 4.25 11.4
    endloop
  endfacet
  facet normal 1 0 0
    outer loop
      vertex 5.5 -4.2 11.2325
      vertex 5.5 -4.25 11.4
      vertex 5.5 -4.25 11.2325
    endloop
  endfacet
  facet normal 1 -0 0
    outer loop
      vertex 5.5 4.2 9.54017
      vertex 5.5 4.25 3.3
      vertex 5.5 4.25 9.54017
    endloop
  endfacet
  facet normal 1 0 0
    outer loop
      vertex 5.5 4.1 3.28396
      vertex 5.5 4.25 3.3
      vertex 5.5 4.2 9.54017
    endloop
  endfacet
  facet normal 1 0 0
    outer loop
      vertex 5.5 4.25 3.3
      vertex 5.5 4.1 3.28396
      vertex 5.5 4.25 3.28396
    endloop
  endfacet
  facet normal 1 0 0
    outer loop
      vertex 5.5 4.1 2.4
      vertex 5.5 -4.1 3.28396
      vertex 5.5 -4.1 2.4
    endloop
  endfacet
  facet normal 1 0 0
    outer loop
      vertex 5.5 4.1 3.28396
      vertex 5.5 -4.2 9.54017
      vertex 5.5 -4.1 3.28396
    endloop
  endfacet
  facet normal 1 0 0
    outer loop
      vertex 5.5 -4.25 3.3
      vertex 5.5 -4.2 9.54017
      vertex 5.5 -4.25 9.54017
    endloop
  endfacet
  facet normal 1 0 0
    outer loop
      vertex 5.5 -4.2 9.54017
      vertex 5.5 -4.25 3.3
      vertex 5.5 -4.1 3.28396
    endloop
  endfacet
  facet normal 1 0 0
    outer loop
      vertex 5.5 -4.1 3.28396
      vertex 5.5 -4.25 3.3
      vertex 5.5 -4.25 3.28396
    endloop
  endfacet
  facet normal -0 0 1
    outer loop
      vertex -5.5 4.25 11.4
      vertex 5.5 -4.25 11.4
      vertex 5.5 4.25 11.4
    endloop
  endfacet
  facet normal 0 0 1
    outer loop
      vertex 5.5 -4.25 11.4
      vertex -5.5 4.25 11.4
      vertex -5.5 -4.25 11.4
    endloop
  endfacet
  facet normal 0 0 -1
    outer loop
      vertex -5.5 -4.1 2.4
      vertex 5.5 4.1 2.4
      vertex 5.5 -4.1 2.4
    endloop
  endfacet
  facet normal -0 0 -1
    outer loop
      vertex 5.5 4.1 2.4
      vertex -5.5 -4.1 2.4
      vertex -5.5 4.1 2.4
    endloop
  endfacet
  facet normal -1 0 0
    outer loop
      vertex -5.5 4.1 2.4
      vertex -5.5 -4.1 2.4
      vertex -5.5 4.1 3.29521
    endloop
  endfacet
  facet normal -1 0 0
    outer loop
      vertex -5.5 4.1 3.29521
      vertex -5.5 4.25 3.3
      vertex -5.5 4.25 3.29521
    endloop
  endfacet
  facet normal -1 -0 0
    outer loop
      vertex -5.5 4.25 3.3
      vertex -5.5 4.1 3.29521
      vertex -5.5 4.25 11.4
    endloop
  endfacet
  facet normal -1 0 0
    outer loop
      vertex -5.5 -4.1 3.29521
      vertex -5.5 4.1 3.29521
      vertex -5.5 -4.1 2.4
    endloop
  endfacet
  facet normal -1 0 0
    outer loop
      vertex -5.5 4.1 3.29521
      vertex -5.5 -4.1 3.29521
      vertex -5.5 4.25 11.4
    endloop
  endfacet
  facet normal -1 0 0
    outer loop
      vertex -5.5 -4.25 3.3
      vertex -5.5 -4.1 3.29521
      vertex -5.5 -4.25 3.29521
    endloop
  endfacet
  facet normal -1 0 0
    outer loop
      vertex -5.5 -4.25 11.4
      vertex -5.5 -4.1 3.29521
      vertex -5.5 -4.25 3.3
    endloop
  endfacet
  facet normal -1 0 0
    outer loop
      vertex -5.5 -4.1 3.29521
      vertex -5.5 -4.25 11.4
      vertex -5.5 4.25 11.4
    endloop
  endfacet
  facet normal 0 1 -0
    outer loop
      vertex 5.5 4.25 3.3
      vertex 3.4863 4.25 8.37756
      vertex 5.5 4.25 9.54017
    endloop
  endfacet
  facet normal 0 1 0
    outer loop
      vertex 3.45445 4.25 8.34161
      vertex 3.3 4.25 8.27
      vertex 3.36581 4.25 8.308
    endloop
  endfacet
  facet normal 0 1 -0
    outer loop
      vertex 0.843135 4.25 6.59032
      vertex 0 4.25 8.2
      vertex 3 4.25 8.2
    endloop
  endfacet
  facet normal 0 1 0
    outer loop
      vertex 1 4.25 6.49999
      vertex 3 4.25 8.2
      vertex 3.09643 4.25 8.20583
    endloop
  endfacet
  facet normal 0 1 0
    outer loop
      vertex 5.5 4.25 3.3
      vertex 3.09643 4.25 8.20583
      vertex 3.3 4.25 8.27
    endloop
  endfacet
  facet normal 0 1 0
    outer loop
      vertex 0 4.25 8.2
      vertex 0.48155 4.25 6.73439
      vertex 0.0974493 4.25 6.79736
    endloop
  endfacet
  facet normal 0 1 0
    outer loop
      vertex 5.5 4.25 3.3
      vertex 3.3 4.25 8.27
      vertex 3.45445 4.25 8.34161
    endloop
  endfacet
  facet normal 0 1 0
    outer loop
      vertex 0 4.25 8.2
      vertex 0.843135 4.25 6.59032
      vertex 0.48155 4.25 6.73439
    endloop
  endfacet
  facet normal 0 1 0
    outer loop
      vertex 3.4863 4.25 8.37756
      vertex 5.5 4.25 3.3
      vertex 3.45445 4.25 8.34161
    endloop
  endfacet
  facet normal 0 1 0
    outer loop
      vertex 3 4.25 8.2
      vertex 1 4.25 6.49999
      vertex 0.843135 4.25 6.59032
    endloop
  endfacet
  facet normal 0 1 0
    outer loop
      vertex 3.09643 4.25 8.20583
      vertex 5.5 4.25 3.3
      vertex 1 4.25 6.49999
    endloop
  endfacet
  facet normal 0 1 0
    outer loop
      vertex 3.29382 4.25 8.2807
      vertex 3.3 4.25 8.27
      vertex 3.09643 4.25 8.20583
    endloop
  endfacet
  facet normal 0 1 0
    outer loop
      vertex 3 4.25 8.21754
      vertex 3.09643 4.25 8.20583
      vertex 3 4.25 8.2
    endloop
  endfacet
  facet normal 0 1 0
    outer loop
      vertex 5.21632 4.25 11.198
      vertex 5.11428 4.25 11.1276
      vertex 5.09808 4.25 11.1556
    endloop
  endfacet
  facet normal 0 1 0
    outer loop
      vertex 5.21632 4.25 11.198
      vertex 5.5 4.25 11.4
      vertex 5.5 4.25 11.2325
    endloop
  endfacet
  facet normal 0 1 0
    outer loop
      vertex 5.09808 4.25 11.1556
      vertex 5.5 4.25 11.4
      vertex 5.21632 4.25 11.198
    endloop
  endfacet
  facet normal 0 1 0
    outer loop
      vertex 5.5 4.25 11.4
      vertex 5.09808 4.25 11.1556
      vertex -5.5 4.25 11.4
    endloop
  endfacet
  facet normal 0 1 0
    outer loop
      vertex 0 4.25 9.8
      vertex 5.09808 4.25 11.1556
      vertex 2.75004 4.25 9.8
    endloop
  endfacet
  facet normal 0 1 0
    outer loop
      vertex 5.09808 4.25 11.1556
      vertex 0 4.25 9.8
      vertex -5.5 4.25 11.4
    endloop
  endfacet
  facet normal 0 1 0
    outer loop
      vertex -0.283684 4.25 9.74801
      vertex 0 4.25 9.8
      vertex 0 4.25 9.78246
    endloop
  endfacet
  facet normal 0 1 0
    outer loop
      vertex 0 4.25 9.8
      vertex -0.283684 4.25 9.74801
      vertex -5.5 4.25 11.4
    endloop
  endfacet
  facet normal 0 1 -0
    outer loop
      vertex -0.598808 4.25 9.5305
      vertex -5.5 4.25 11.4
      vertex -0.283684 4.25 9.74801
    endloop
  endfacet
  facet normal 0 1 -0
    outer loop
      vertex -0.776753 4.25 9.19145
      vertex -5.5 4.25 11.4
      vertex -0.598808 4.25 9.5305
    endloop
  endfacet
  facet normal 0 1 -0
    outer loop
      vertex -0.776753 4.25 8.80855
      vertex -5.5 4.25 11.4
      vertex -0.776753 4.25 9.19145
    endloop
  endfacet
  facet normal 0 1 0
    outer loop
      vertex -1 4.25 6.49999
      vertex -0.776753 4.25 8.80855
      vertex -0.598808 4.25 8.4695
    endloop
  endfacet
  facet normal 0 1 0
    outer loop
      vertex -0.666248 4.25 6.67216
      vertex -0.598808 4.25 8.4695
      vertex -0.283684 4.25 8.25199
    endloop
  endfacet
  facet normal 0 1 -0
    outer loop
      vertex 0 4.25 8.2
      vertex -0.283684 4.25 8.25199
      vertex 0 4.25 8.21754
    endloop
  endfacet
  facet normal 0 1 0
    outer loop
      vertex -0.291207 4.25 6.77629
      vertex 0 4.25 8.2
      vertex 0.0974493 4.25 6.79736
    endloop
  endfacet
  facet normal 0 1 0
    outer loop
      vertex 0 4.25 8.2
      vertex -0.291207 4.25 6.77629
      vertex -0.283684 4.25 8.25199
    endloop
  endfacet
  facet normal 0 1 0
    outer loop
      vertex -0.666248 4.25 6.67216
      vertex -0.283684 4.25 8.25199
      vertex -0.291207 4.25 6.77629
    endloop
  endfacet
  facet normal 0 1 0
    outer loop
      vertex -0.598808 4.25 8.4695
      vertex -0.666248 4.25 6.67216
      vertex -1 4.25 6.49999
    endloop
  endfacet
  facet normal 0 1 0
    outer loop
      vertex -1 4.25 6.49999
      vertex -0.666248 4.25 6.67216
      vertex -0.990985 4.25 6.49999
    endloop
  endfacet
  facet normal 0 1 0
    outer loop
      vertex -0.776753 4.25 8.80855
      vertex -1 4.25 6.49999
      vertex -5.5 4.25 11.4
    endloop
  endfacet
  facet normal 0 1 0
    outer loop
      vertex -5.5 4.25 11.4
      vertex -1 4.25 6.49999
      vertex -5.5 4.25 3.3
    endloop
  endfacet
  facet normal 0 1 0
    outer loop
      vertex 0.843135 4.25 6.59032
      vertex 1 4.25 6.49999
      vertex 0.976359 4.25 6.49999
    endloop
  endfacet
  facet normal 0 1 0
    outer loop
      vertex -5.49875 4.25 3.29588
      vertex -5.5 4.25 3.29521
      vertex -5.5 4.25 3.3
    endloop
  endfacet
  facet normal 0 1 -0
    outer loop
      vertex 5.5 4.25 3.28396
      vertex 5.49597 4.25 3.2867
      vertex 5.5 4.25 3.3
    endloop
  endfacet
  facet normal 0 -1 0
    outer loop
      vertex 5.09808 -4.25 11.1556
      vertex 5.5 -4.25 11.4
      vertex -5.5 -4.25 11.4
    endloop
  endfacet
  facet normal 0 -1 -0
    outer loop
      vertex 5.5 -4.25 11.4
      vertex 5.21632 -4.25 11.198
      vertex 5.5 -4.25 11.2325
    endloop
  endfacet
  facet normal 0 -1 0
    outer loop
      vertex 5.5 -4.25 11.4
      vertex 5.09808 -4.25 11.1556
      vertex 5.21632 -4.25 11.198
    endloop
  endfacet
  facet normal 0 -1 0
    outer loop
      vertex -5.5 -4.25 11.4
      vertex 0 -4.25 9.8
      vertex 5.09808 -4.25 11.1556
    endloop
  endfacet
  facet normal 0 -1 0
    outer loop
      vertex -0.283684 -4.25 9.74801
      vertex 0 -4.25 9.8
      vertex -5.5 -4.25 11.4
    endloop
  endfacet
  facet normal 0 -1 -0
    outer loop
      vertex 0 -4.25 9.8
      vertex -0.283684 -4.25 9.74801
      vertex 0 -4.25 9.78246
    endloop
  endfacet
  facet normal 0 -1 0
    outer loop
      vertex -5.5 -4.25 11.4
      vertex -0.598808 -4.25 9.5305
      vertex -0.283684 -4.25 9.74801
    endloop
  endfacet
  facet normal 0 -1 0
    outer loop
      vertex -5.5 -4.25 11.4
      vertex -0.776753 -4.25 9.19145
      vertex -0.598808 -4.25 9.5305
    endloop
  endfacet
  facet normal 0 -1 0
    outer loop
      vertex -5.5 -4.25 11.4
      vertex -0.776753 -4.25 8.80855
      vertex -0.776753 -4.25 9.19145
    endloop
  endfacet
  facet normal 0 -1 0
    outer loop
      vertex -1 -4.25 6.49999
      vertex -0.776753 -4.25 8.80855
      vertex -5.5 -4.25 11.4
    endloop
  endfacet
  facet normal 0 -1 -0
    outer loop
      vertex -0.776753 -4.25 8.80855
      vertex -1 -4.25 6.49999
      vertex -0.598808 -4.25 8.4695
    endloop
  endfacet
  facet normal 0 -1 0
    outer loop
      vertex -0.283684 -4.25 8.25199
      vertex 0 -4.25 8.2
      vertex 0 -4.25 8.21754
    endloop
  endfacet
  facet normal 0 -1 0
    outer loop
      vertex 0.48155 -4.25 6.73439
      vertex 0 -4.25 8.2
      vertex 0.0974493 -4.25 6.79736
    endloop
  endfacet
  facet normal 0 -1 0
    outer loop
      vertex -0.291207 -4.25 6.77629
      vertex 0 -4.25 8.2
      vertex -0.283684 -4.25 8.25199
    endloop
  endfacet
  facet normal -0 -1 0
    outer loop
      vertex -0.666248 -4.25 6.67216
      vertex -0.598808 -4.25 8.4695
      vertex -1 -4.25 6.49999
    endloop
  endfacet
  facet normal 0 -1 -0
    outer loop
      vertex 0 -4.25 8.2
      vertex -0.291207 -4.25 6.77629
      vertex 0.0974493 -4.25 6.79736
    endloop
  endfacet
  facet normal 0 -1 0
    outer loop
      vertex -0.283684 -4.25 8.25199
      vertex -0.666248 -4.25 6.67216
      vertex -0.291207 -4.25 6.77629
    endloop
  endfacet
  facet normal 0 -1 -0
    outer loop
      vertex -0.598808 -4.25 8.4695
      vertex -0.666248 -4.25 6.67216
      vertex -0.283684 -4.25 8.25199
    endloop
  endfacet
  facet normal -0 -1 0
    outer loop
      vertex -1 -4.25 6.49999
      vertex -5.5 -4.25 11.4
      vertex -5.5 -4.25 3.3
    endloop
  endfacet
  facet normal 0 -1 0
    outer loop
      vertex 5.21632 -4.25 11.198
      vertex 5.09808 -4.25 11.1556
      vertex 5.11428 -4.25 11.1276
    endloop
  endfacet
  facet normal 0 -1 0
    outer loop
      vertex 5.09808 -4.25 11.1556
      vertex 0 -4.25 9.8
      vertex 2.75004 -4.25 9.8
    endloop
  endfacet
  facet normal 0 -1 0
    outer loop
      vertex 3 -4.25 8.21754
      vertex 3 -4.25 8.2
      vertex 3.09643 -4.25 8.20583
    endloop
  endfacet
  facet normal 0 -1 -0
    outer loop
      vertex 3.29382 -4.25 8.2807
      vertex 3.09643 -4.25 8.20583
      vertex 3.3 -4.25 8.27
    endloop
  endfacet
  facet normal 0 -1 0
    outer loop
      vertex 5.5 -4.25 3.3
      vertex 3.4863 -4.25 8.37756
      vertex 3.45445 -4.25 8.34161
    endloop
  endfacet
  facet normal 0 -1 0
    outer loop
      vertex 3.3 -4.25 8.27
      vertex 3.45445 -4.25 8.34161
      vertex 3.36581 -4.25 8.308
    endloop
  endfacet
  facet normal 0 -1 0
    outer loop
      vertex 0.843135 -4.25 6.59032
      vertex 0 -4.25 8.2
      vertex 0.48155 -4.25 6.73439
    endloop
  endfacet
  facet normal 0 -1 0
    outer loop
      vertex 0 -4.25 8.2
      vertex 0.843135 -4.25 6.59032
      vertex 3 -4.25 8.2
    endloop
  endfacet
  facet normal 0 -1 0
    outer loop
      vertex 1 -4.25 6.49999
      vertex 3 -4.25 8.2
      vertex 0.843135 -4.25 6.59032
    endloop
  endfacet
  facet normal 0 -1 -0
    outer loop
      vertex 3 -4.25 8.2
      vertex 1 -4.25 6.49999
      vertex 3.09643 -4.25 8.20583
    endloop
  endfacet
  facet normal 0 -1 0
    outer loop
      vertex 5.5 -4.25 3.3
      vertex 3.09643 -4.25 8.20583
      vertex 1 -4.25 6.49999
    endloop
  endfacet
  facet normal 0 -1 0
    outer loop
      vertex 3.09643 -4.25 8.20583
      vertex 5.5 -4.25 3.3
      vertex 3.3 -4.25 8.27
    endloop
  endfacet
  facet normal 0 -1 0
    outer loop
      vertex 1 -4.25 6.49999
      vertex 0.843135 -4.25 6.59032
      vertex 0.976359 -4.25 6.49999
    endloop
  endfacet
  facet normal 0 -1 0
    outer loop
      vertex 3.3 -4.25 8.27
      vertex 5.5 -4.25 3.3
      vertex 3.45445 -4.25 8.34161
    endloop
  endfacet
  facet normal 0 -1 0
    outer loop
      vertex 3.4863 -4.25 8.37756
      vertex 5.5 -4.25 3.3
      vertex 5.5 -4.25 9.54017
    endloop
  endfacet
  facet normal 0 -1 0
    outer loop
      vertex -0.666248 -4.25 6.67216
      vertex -1 -4.25 6.49999
      vertex -0.990985 -4.25 6.49999
    endloop
  endfacet
  facet normal 0 -1 0
    outer loop
      vertex -5.5 -4.25 3.3
      vertex -5.5 -4.25 3.29521
      vertex -5.49875 -4.25 3.29588
    endloop
  endfacet
  facet normal 0 -1 -0
    outer loop
      vertex 5.5 -4.25 3.3
      vertex 5.49597 -4.25 3.2867
      vertex 5.5 -4.25 3.28396
    endloop
  endfacet
  facet normal -1 0 0
    outer loop
      vertex -0.776753 4.25 8.80855
      vertex -0.776753 4.7 9.19145
      vertex -0.776753 4.7 8.80855
    endloop
  endfacet
  facet normal -1 -0 0
    outer loop
      vertex -0.776753 4.7 9.19145
      vertex -0.776753 4.25 8.80855
      vertex -0.776753 4.25 9.19145
    endloop
  endfacet
  facet normal -0.568057 0 0.822989
    outer loop
      vertex -0.598808 4.7 9.5305
      vertex -0.283684 4.25 9.74801
      vertex -0.283684 4.7 9.74801
    endloop
  endfacet
  facet normal -0.568057 0 0.822989
    outer loop
      vertex -0.283684 4.25 9.74801
      vertex -0.598808 4.7 9.5305
      vertex -0.598808 4.25 9.5305
    endloop
  endfacet
  facet normal 0 1 0
    outer loop
      vertex 5.59643 4.7 11.2442
      vertex 5.11428 4.7 11.1276
      vertex 5.21632 4.7 11.198
    endloop
  endfacet
  facet normal -0 1 0
    outer loop
      vertex 5.11428 4.7 11.1276
      vertex 5.59643 4.7 11.2442
      vertex 5.95445 4.7 11.1084
    endloop
  endfacet
  facet normal 0 1 0
    outer loop
      vertex 6.20836 4.7 10.8218
      vertex 5.11428 4.7 11.1276
      vertex 5.95445 4.7 11.1084
    endloop
  endfacet
  facet normal 0 1 0
    outer loop
      vertex 6.3 4.7 10.45
      vertex 5.11428 4.7 11.1276
      vertex 6.20836 4.7 10.8218
    endloop
  endfacet
  facet normal 0 1 0
    outer loop
      vertex 5.89797 4.7 9.77019
      vertex 6.3 4.7 10.45
      vertex 6.20836 4.7 10.0782
    endloop
  endfacet
  facet normal 0 1 0
    outer loop
      vertex 5.11428 4.7 11.1276
      vertex 2.75004 4.7 9.8
      vertex 5.09808 4.7 11.1556
    endloop
  endfacet
  facet normal 0 1 0
    outer loop
      vertex 6.3 4.7 10.45
      vertex 5.89797 4.7 9.77019
      vertex 5.11428 4.7 11.1276
    endloop
  endfacet
  facet normal 0 1 0
    outer loop
      vertex 5.89797 4.7 9.77019
      vertex 6.20836 4.7 10.0782
      vertex 5.95445 4.7 9.79161
    endloop
  endfacet
  facet normal 0 1 0
    outer loop
      vertex 5.11428 4.7 11.1276
      vertex 5.89797 4.7 9.77019
      vertex 2.75004 4.7 9.8
    endloop
  endfacet
  facet normal 0 1 -0
    outer loop
      vertex 3.4863 4.7 8.37756
      vertex 2.75004 4.7 9.8
      vertex 5.89797 4.7 9.77019
    endloop
  endfacet
  facet normal 0 1 -0
    outer loop
      vertex 3.29382 4.7 8.2807
      vertex 2.75004 4.7 9.8
      vertex 3.4863 4.7 8.37756
    endloop
  endfacet
  facet normal 0 1 0
    outer loop
      vertex 3.4863 4.7 8.37756
      vertex 5.89797 4.7 9.77019
      vertex 5.89808 4.7 9.77
    endloop
  endfacet
  facet normal 0 1 0
    outer loop
      vertex 0 4.7 8.21754
      vertex 2.75004 4.7 9.8
      vertex 3 4.7 8.21754
    endloop
  endfacet
  facet normal 0 1 0
    outer loop
      vertex 2.75004 4.7 9.8
      vertex 0 4.7 9.78246
      vertex 0 4.7 9.8
    endloop
  endfacet
  facet normal 0 1 0
    outer loop
      vertex 2.75004 4.7 9.8
      vertex 0 4.7 8.21754
      vertex 0 4.7 9.78246
    endloop
  endfacet
  facet normal -0 1 0
    outer loop
      vertex -0.776753 4.7 9.19145
      vertex 0 4.7 9.78246
      vertex 0 4.7 8.21754
    endloop
  endfacet
  facet normal 0 1 0
    outer loop
      vertex 0 4.7 9.78246
      vertex -0.598808 4.7 9.5305
      vertex -0.283684 4.7 9.74801
    endloop
  endfacet
  facet normal 0 1 0
    outer loop
      vertex 0 4.7 9.78246
      vertex -0.776753 4.7 9.19145
      vertex -0.598808 4.7 9.5305
    endloop
  endfacet
  facet normal 0 1 0
    outer loop
      vertex 3.36581 4.7 8.308
      vertex 3.4863 4.7 8.37756
      vertex 3.45445 4.7 8.34161
    endloop
  endfacet
  facet normal 0 1 0
    outer loop
      vertex 3.29382 4.7 8.2807
      vertex 3.4863 4.7 8.37756
      vertex 3.36581 4.7 8.308
    endloop
  endfacet
  facet normal 0 1 0
    outer loop
      vertex 2.75004 4.7 9.8
      vertex 3.29382 4.7 8.2807
      vertex 3 4.7 8.21754
    endloop
  endfacet
  facet normal 0 1 0
    outer loop
      vertex -0.776753 4.7 9.19145
      vertex 0 4.7 8.21754
      vertex -0.776753 4.7 8.80855
    endloop
  endfacet
  facet normal 0 1 0
    outer loop
      vertex -0.776753 4.7 8.80855
      vertex 0 4.7 8.21754
      vertex -0.598808 4.7 8.4695
    endloop
  endfacet
  facet normal -0 1 0
    outer loop
      vertex 3 4.7 8.21754
      vertex 3.29382 4.7 8.2807
      vertex 3.09643 4.7 8.20583
    endloop
  endfacet
  facet normal 0 1 0
    outer loop
      vertex 3.36581 4.7 8.308
      vertex 3.3 4.7 8.27
      vertex 3.29382 4.7 8.2807
    endloop
  endfacet
  facet normal 0 1 0
    outer loop
      vertex -0.598808 4.7 8.4695
      vertex 0 4.7 8.21754
      vertex -0.283684 4.7 8.25199
    endloop
  endfacet
  facet normal 0 1 -0
    outer loop
      vertex 3 4.7 8.2
      vertex 0 4.7 8.21754
      vertex 3 4.7 8.21754
    endloop
  endfacet
  facet normal 0 1 0
    outer loop
      vertex 0 4.7 8.21754
      vertex 3 4.7 8.2
      vertex 0 4.7 8.2
    endloop
  endfacet
  facet normal -0.120552 0 -0.992707
    outer loop
      vertex -0.283684 4.25 8.25199
      vertex 0 4.7 8.21754
      vertex 0 4.25 8.21754
    endloop
  endfacet
  facet normal -0.120552 0 -0.992707
    outer loop
      vertex 0 4.7 8.21754
      vertex -0.283684 4.25 8.25199
      vertex -0.283684 4.7 8.25199
    endloop
  endfacet
  facet normal -0.120552 0 0.992707
    outer loop
      vertex -0.283684 4.7 9.74801
      vertex 0 4.25 9.78246
      vertex 0 4.7 9.78246
    endloop
  endfacet
  facet normal -0.120552 0 0.992707
    outer loop
      vertex 0 4.25 9.78246
      vertex -0.283684 4.7 9.74801
      vertex -0.283684 4.25 9.74801
    endloop
  endfacet
  facet normal -0.568057 0 -0.822989
    outer loop
      vertex -0.598808 4.25 8.4695
      vertex -0.283684 4.7 8.25199
      vertex -0.283684 4.25 8.25199
    endloop
  endfacet
  facet normal -0.568057 0 -0.822989
    outer loop
      vertex -0.283684 4.7 8.25199
      vertex -0.598808 4.25 8.4695
      vertex -0.598808 4.7 8.4695
    endloop
  endfacet
  facet normal 0 -1 0
    outer loop
      vertex 5.5 4.2 11.2325
      vertex 5.95445 4.2 11.1084
      vertex 5.59643 4.2 11.2442
    endloop
  endfacet
  facet normal 0 -1 0
    outer loop
      vertex 5.5 4.2 11.2325
      vertex 6.20836 4.2 10.8218
      vertex 5.95445 4.2 11.1084
    endloop
  endfacet
  facet normal 0 -1 0
    outer loop
      vertex 5.5 4.2 11.2325
      vertex 6.3 4.2 10.45
      vertex 6.20836 4.2 10.8218
    endloop
  endfacet
  facet normal 0 -1 0
    outer loop
      vertex 5.89797 4.2 9.77019
      vertex 6.3 4.2 10.45
      vertex 5.5 4.2 11.2325
    endloop
  endfacet
  facet normal 0 -1 0
    outer loop
      vertex 6.3 4.2 10.45
      vertex 5.89797 4.2 9.77019
      vertex 6.20836 4.2 10.0782
    endloop
  endfacet
  facet normal 0 -1 0
    outer loop
      vertex 6.20836 4.2 10.0782
      vertex 5.89797 4.2 9.77019
      vertex 5.95445 4.2 9.79161
    endloop
  endfacet
  facet normal 0 -1 -0
    outer loop
      vertex 5.89797 4.2 9.77019
      vertex 5.5 4.2 9.54017
      vertex 5.89808 4.2 9.77
    endloop
  endfacet
  facet normal 0 -1 0
    outer loop
      vertex 5.5 4.2 9.54017
      vertex 5.89797 4.2 9.77019
      vertex 5.5 4.2 11.2325
    endloop
  endfacet
  facet normal -0.885458 0 -0.464719
    outer loop
      vertex -0.598808 4.25 8.4695
      vertex -0.776753 4.7 8.80855
      vertex -0.598808 4.7 8.4695
    endloop
  endfacet
  facet normal -0.885458 -0 -0.464719
    outer loop
      vertex -0.776753 4.7 8.80855
      vertex -0.598808 4.25 8.4695
      vertex -0.776753 4.25 8.80855
    endloop
  endfacet
  facet normal -0.885458 0 0.464719
    outer loop
      vertex -0.776753 4.25 9.19145
      vertex -0.598808 4.7 9.5305
      vertex -0.776753 4.7 9.19145
    endloop
  endfacet
  facet normal -0.885458 0 0.464719
    outer loop
      vertex -0.598808 4.7 9.5305
      vertex -0.776753 4.25 9.19145
      vertex -0.598808 4.25 9.5305
    endloop
  endfacet
  facet normal 1 -0 0
    outer loop
      vertex 3 4.25 8.21754
      vertex 3 4.7 8.2
      vertex 3 4.7 8.21754
    endloop
  endfacet
  facet normal 1 0 0
    outer loop
      vertex 3 4.7 8.2
      vertex 3 4.25 8.21754
      vertex 3 4.25 8.2
    endloop
  endfacet
  facet normal -0 0 1
    outer loop
      vertex 0 4.7 9.8
      vertex 2.75004 4.25 9.8
      vertex 2.75004 4.7 9.8
    endloop
  endfacet
  facet normal 0 0 1
    outer loop
      vertex 2.75004 4.25 9.8
      vertex 0 4.7 9.8
      vertex 0 4.25 9.8
    endloop
  endfacet
  facet normal 0 0 -1
    outer loop
      vertex 0 4.25 8.2
      vertex 3 4.7 8.2
      vertex 3 4.25 8.2
    endloop
  endfacet
  facet normal -0 0 -1
    outer loop
      vertex 3 4.7 8.2
      vertex 0 4.25 8.2
      vertex 0 4.7 8.2
    endloop
  endfacet
  facet normal -1 0 0
    outer loop
      vertex 0 4.25 9.78246
      vertex 0 4.7 9.8
      vertex 0 4.7 9.78246
    endloop
  endfacet
  facet normal -1 -0 0
    outer loop
      vertex 0 4.7 9.8
      vertex 0 4.25 9.78246
      vertex 0 4.25 9.8
    endloop
  endfacet
  facet normal -1 0 0
    outer loop
      vertex 0 4.25 8.2
      vertex 0 4.7 8.21754
      vertex 0 4.7 8.2
    endloop
  endfacet
  facet normal -1 -0 0
    outer loop
      vertex 0 4.7 8.21754
      vertex 0 4.25 8.2
      vertex 0 4.25 8.21754
    endloop
  endfacet
  facet normal 0.354543 0 -0.93504
    outer loop
      vertex 3.36581 4.25 8.308
      vertex 3.45445 4.7 8.34161
      vertex 3.45445 4.25 8.34161
    endloop
  endfacet
  facet normal 0.354543 0 -0.93504
    outer loop
      vertex 3.45445 4.7 8.34161
      vertex 3.36581 4.25 8.308
      vertex 3.36581 4.7 8.308
    endloop
  endfacet
  facet normal 0.354646 0 -0.935001
    outer loop
      vertex 3.09643 4.25 8.20583
      vertex 3.29382 4.7 8.2807
      vertex 3.29382 4.25 8.2807
    endloop
  endfacet
  facet normal 0.354646 0 -0.935001
    outer loop
      vertex 3.29382 4.7 8.2807
      vertex 3.09643 4.25 8.20583
      vertex 3.09643 4.7 8.20583
    endloop
  endfacet
  facet normal -0.12055 0 -0.992707
    outer loop
      vertex 3 4.25 8.21754
      vertex 3.09643 4.7 8.20583
      vertex 3.09643 4.25 8.20583
    endloop
  endfacet
  facet normal -0.12055 0 -0.992707
    outer loop
      vertex 3.09643 4.7 8.20583
      vertex 3 4.25 8.21754
      vertex 3 4.7 8.21754
    endloop
  endfacet
  facet normal 0.7485 0 -0.663135
    outer loop
      vertex 3.4863 4.25 8.37756
      vertex 3.45445 4.7 8.34161
      vertex 3.4863 4.7 8.37756
    endloop
  endfacet
  facet normal 0.7485 0 -0.663135
    outer loop
      vertex 3.45445 4.7 8.34161
      vertex 3.4863 4.25 8.37756
      vertex 3.45445 4.25 8.34161
    endloop
  endfacet
  facet normal -0.499989 0 0.866032
    outer loop
      vertex 2.75004 4.7 9.8
      vertex 5.09808 4.25 11.1556
      vertex 5.09808 4.7 11.1556
    endloop
  endfacet
  facet normal -0.499989 0 0.866032
    outer loop
      vertex 5.09808 4.25 11.1556
      vertex 2.75004 4.7 9.8
      vertex 2.75004 4.25 9.8
    endloop
  endfacet
  facet normal 0.865567 -0 0.500793
    outer loop
      vertex 5.09808 4.25 11.1556
      vertex 5.11428 4.7 11.1276
      vertex 5.09808 4.7 11.1556
    endloop
  endfacet
  facet normal 0.865567 0 0.500793
    outer loop
      vertex 5.11428 4.7 11.1276
      vertex 5.09808 4.25 11.1556
      vertex 5.11428 4.25 11.1276
    endloop
  endfacet
  facet normal 0.865426 -0 0.501036
    outer loop
      vertex 5.89797 4.2 9.77019
      vertex 5.89808 4.7 9.77
      vertex 5.89797 4.7 9.77019
    endloop
  endfacet
  facet normal 0.865426 0 0.501036
    outer loop
      vertex 5.89808 4.7 9.77
      vertex 5.89797 4.2 9.77019
      vertex 5.89808 4.2 9.77
    endloop
  endfacet
  facet normal 0.499997 0 -0.866027
    outer loop
      vertex 5.5 4.25 9.54017
      vertex 5.89808 4.2 9.77
      vertex 5.5 4.2 9.54017
    endloop
  endfacet
  facet normal 0.499997 0 -0.866027
    outer loop
      vertex 5.89808 4.2 9.77
      vertex 5.5 4.25 9.54017
      vertex 5.89808 4.7 9.77
    endloop
  endfacet
  facet normal 0.5 0 -0.866025
    outer loop
      vertex 3.4863 4.7 8.37756
      vertex 5.5 4.25 9.54017
      vertex 3.4863 4.25 8.37756
    endloop
  endfacet
  facet normal 0.5 -2.48788e-06 -0.866026
    outer loop
      vertex 5.5 4.25 9.54017
      vertex 3.4863 4.7 8.37756
      vertex 5.89808 4.7 9.77
    endloop
  endfacet
  facet normal 0.500045 0 -0.865999
    outer loop
      vertex 3.3 4.25 8.27
      vertex 3.36581 4.7 8.308
      vertex 3.36581 4.25 8.308
    endloop
  endfacet
  facet normal 0.500045 0 -0.865999
    outer loop
      vertex 3.36581 4.7 8.308
      vertex 3.3 4.25 8.27
      vertex 3.3 4.7 8.27
    endloop
  endfacet
  facet normal -0.865943 0 -0.500143
    outer loop
      vertex 3.3 4.25 8.27
      vertex 3.29382 4.7 8.2807
      vertex 3.3 4.7 8.27
    endloop
  endfacet
  facet normal -0.865943 -0 -0.500143
    outer loop
      vertex 3.29382 4.7 8.2807
      vertex 3.3 4.25 8.27
      vertex 3.29382 4.25 8.2807
    endloop
  endfacet
  facet normal 0.748505 -0 0.663129
    outer loop
      vertex 5.95445 4.2 11.1084
      vertex 6.20836 4.7 10.8218
      vertex 5.95445 4.7 11.1084
    endloop
  endfacet
  facet normal 0.748505 0 0.663129
    outer loop
      vertex 6.20836 4.7 10.8218
      vertex 5.95445 4.2 11.1084
      vertex 6.20836 4.2 10.8218
    endloop
  endfacet
  facet normal 0.970942 -0 0.239315
    outer loop
      vertex 6.20836 4.2 10.8218
      vertex 6.3 4.7 10.45
      vertex 6.20836 4.7 10.8218
    endloop
  endfacet
  facet normal 0.970942 0 0.239315
    outer loop
      vertex 6.3 4.7 10.45
      vertex 6.20836 4.2 10.8218
      vertex 6.3 4.2 10.45
    endloop
  endfacet
  facet normal 0.354604 0 -0.935016
    outer loop
      vertex 5.89797 4.2 9.77019
      vertex 5.95445 4.7 9.79161
      vertex 5.95445 4.2 9.79161
    endloop
  endfacet
  facet normal 0.354604 0 -0.935016
    outer loop
      vertex 5.95445 4.7 9.79161
      vertex 5.89797 4.2 9.77019
      vertex 5.89797 4.7 9.77019
    endloop
  endfacet
  facet normal 0.748493 0 -0.663142
    outer loop
      vertex 6.20836 4.2 10.0782
      vertex 5.95445 4.7 9.79161
      vertex 6.20836 4.7 10.0782
    endloop
  endfacet
  facet normal 0.748493 0 -0.663142
    outer loop
      vertex 5.95445 4.7 9.79161
      vertex 6.20836 4.2 10.0782
      vertex 5.95445 4.2 9.79161
    endloop
  endfacet
  facet normal -0.120448 0 0.99272
    outer loop
      vertex 5.59643 4.7 11.2442
      vertex 5.5 4.25 11.2325
      vertex 5.59643 4.2 11.2442
    endloop
  endfacet
  facet normal -0.120656 4.51458e-05 0.992694
    outer loop
      vertex 5.21632 4.7 11.198
      vertex 5.5 4.25 11.2325
      vertex 5.59643 4.7 11.2442
    endloop
  endfacet
  facet normal -0.120726 0 0.992686
    outer loop
      vertex 5.5 4.25 11.2325
      vertex 5.21632 4.7 11.198
      vertex 5.21632 4.25 11.198
    endloop
  endfacet
  facet normal -0.120448 0 0.99272
    outer loop
      vertex 5.59643 4.2 11.2442
      vertex 5.5 4.25 11.2325
      vertex 5.5 4.2 11.2325
    endloop
  endfacet
  facet normal 0.970942 0 -0.239315
    outer loop
      vertex 6.3 4.2 10.45
      vertex 6.20836 4.7 10.0782
      vertex 6.3 4.7 10.45
    endloop
  endfacet
  facet normal 0.970942 0 -0.239315
    outer loop
      vertex 6.20836 4.7 10.0782
      vertex 6.3 4.2 10.45
      vertex 6.20836 4.2 10.0782
    endloop
  endfacet
  facet normal -0.567884 0 0.823109
    outer loop
      vertex 5.11428 4.7 11.1276
      vertex 5.21632 4.25 11.198
      vertex 5.21632 4.7 11.198
    endloop
  endfacet
  facet normal -0.567884 0 0.823109
    outer loop
      vertex 5.21632 4.25 11.198
      vertex 5.11428 4.7 11.1276
      vertex 5.11428 4.25 11.1276
    endloop
  endfacet
  facet normal 0.354653 0 0.934998
    outer loop
      vertex 5.59643 4.7 11.2442
      vertex 5.95445 4.2 11.1084
      vertex 5.95445 4.7 11.1084
    endloop
  endfacet
  facet normal 0.354653 0 0.934998
    outer loop
      vertex 5.95445 4.2 11.1084
      vertex 5.59643 4.7 11.2442
      vertex 5.59643 4.2 11.2442
    endloop
  endfacet
  facet normal -1 0 0
    outer loop
      vertex -0.776753 -4.7 8.80855
      vertex -0.776753 -4.25 9.19145
      vertex -0.776753 -4.25 8.80855
    endloop
  endfacet
  facet normal -1 -0 0
    outer loop
      vertex -0.776753 -4.25 9.19145
      vertex -0.776753 -4.7 8.80855
      vertex -0.776753 -4.7 9.19145
    endloop
  endfacet
  facet normal -0.568057 0 0.822989
    outer loop
      vertex -0.598808 -4.25 9.5305
      vertex -0.283684 -4.7 9.74801
      vertex -0.283684 -4.25 9.74801
    endloop
  endfacet
  facet normal -0.568057 0 0.822989
    outer loop
      vertex -0.283684 -4.7 9.74801
      vertex -0.598808 -4.25 9.5305
      vertex -0.598808 -4.7 9.5305
    endloop
  endfacet
  facet normal 0 1 0
    outer loop
      vertex 5.95445 -4.2 11.1084
      vertex 5.5 -4.2 11.2325
      vertex 5.59643 -4.2 11.2442
    endloop
  endfacet
  facet normal 0 1 0
    outer loop
      vertex 6.20836 -4.2 10.8218
      vertex 5.5 -4.2 11.2325
      vertex 5.95445 -4.2 11.1084
    endloop
  endfacet
  facet normal 0 1 0
    outer loop
      vertex 6.3 -4.2 10.45
      vertex 5.5 -4.2 11.2325
      vertex 6.20836 -4.2 10.8218
    endloop
  endfacet
  facet normal 0 1 0
    outer loop
      vertex 5.89797 -4.2 9.77019
      vertex 6.3 -4.2 10.45
      vertex 6.20836 -4.2 10.0782
    endloop
  endfacet
  facet normal 0 1 0
    outer loop
      vertex 5.89797 -4.2 9.77019
      vertex 6.20836 -4.2 10.0782
      vertex 5.95445 -4.2 9.79161
    endloop
  endfacet
  facet normal 0 1 0
    outer loop
      vertex 6.3 -4.2 10.45
      vertex 5.89797 -4.2 9.77019
      vertex 5.5 -4.2 11.2325
    endloop
  endfacet
  facet normal 0 1 0
    outer loop
      vertex 5.89797 -4.2 9.77019
      vertex 5.5 -4.2 9.54017
      vertex 5.5 -4.2 11.2325
    endloop
  endfacet
  facet normal 0 1 0
    outer loop
      vertex 5.5 -4.2 9.54017
      vertex 5.89797 -4.2 9.77019
      vertex 5.89808 -4.2 9.77
    endloop
  endfacet
  facet normal -0.120552 0 -0.992707
    outer loop
      vertex -0.283684 -4.7 8.25199
      vertex 0 -4.25 8.21754
      vertex 0 -4.7 8.21754
    endloop
  endfacet
  facet normal -0.120552 0 -0.992707
    outer loop
      vertex 0 -4.25 8.21754
      vertex -0.283684 -4.7 8.25199
      vertex -0.283684 -4.25 8.25199
    endloop
  endfacet
  facet normal -0.120552 0 0.992707
    outer loop
      vertex -0.283684 -4.25 9.74801
      vertex 0 -4.7 9.78246
      vertex 0 -4.25 9.78246
    endloop
  endfacet
  facet normal -0.120552 0 0.992707
    outer loop
      vertex 0 -4.7 9.78246
      vertex -0.283684 -4.25 9.74801
      vertex -0.283684 -4.7 9.74801
    endloop
  endfacet
  facet normal -0.568057 0 -0.822989
    outer loop
      vertex -0.598808 -4.7 8.4695
      vertex -0.283684 -4.25 8.25199
      vertex -0.283684 -4.7 8.25199
    endloop
  endfacet
  facet normal -0.568057 0 -0.822989
    outer loop
      vertex -0.283684 -4.25 8.25199
      vertex -0.598808 -4.7 8.4695
      vertex -0.598808 -4.25 8.4695
    endloop
  endfacet
  facet normal 0 -1 0
    outer loop
      vertex 0 -4.7 8.2
      vertex 3 -4.7 8.21754
      vertex 0 -4.7 8.21754
    endloop
  endfacet
  facet normal 0 -1 -0
    outer loop
      vertex 3 -4.7 8.21754
      vertex 0 -4.7 8.2
      vertex 3 -4.7 8.2
    endloop
  endfacet
  facet normal 0 -1 0
    outer loop
      vertex 0 -4.7 9.78246
      vertex 2.75004 -4.7 9.8
      vertex 0 -4.7 9.8
    endloop
  endfacet
  facet normal 0 -1 0
    outer loop
      vertex 0 -4.7 8.21754
      vertex 2.75004 -4.7 9.8
      vertex 0 -4.7 9.78246
    endloop
  endfacet
  facet normal 0 -1 0
    outer loop
      vertex 2.75004 -4.7 9.8
      vertex 5.89797 -4.7 9.77019
      vertex 5.95445 -4.7 9.79161
    endloop
  endfacet
  facet normal 0 -1 0
    outer loop
      vertex 2.75004 -4.7 9.8
      vertex 3.4863 -4.7 8.37756
      vertex 5.89797 -4.7 9.77019
    endloop
  endfacet
  facet normal 0 -1 0
    outer loop
      vertex -0.598808 -4.7 9.5305
      vertex 0 -4.7 9.78246
      vertex -0.283684 -4.7 9.74801
    endloop
  endfacet
  facet normal 0 -1 0
    outer loop
      vertex -0.776753 -4.7 9.19145
      vertex 0 -4.7 9.78246
      vertex -0.598808 -4.7 9.5305
    endloop
  endfacet
  facet normal 0 -1 -0
    outer loop
      vertex 0 -4.7 9.78246
      vertex -0.776753 -4.7 9.19145
      vertex 0 -4.7 8.21754
    endloop
  endfacet
  facet normal 0 -1 0
    outer loop
      vertex 0 -4.7 8.21754
      vertex -0.776753 -4.7 9.19145
      vertex -0.776753 -4.7 8.80855
    endloop
  endfacet
  facet normal 0 -1 0
    outer loop
      vertex 0 -4.7 8.21754
      vertex -0.776753 -4.7 8.80855
      vertex -0.598808 -4.7 8.4695
    endloop
  endfacet
  facet normal 0 -1 -0
    outer loop
      vertex 5.89797 -4.7 9.77019
      vertex 3.4863 -4.7 8.37756
      vertex 5.89808 -4.7 9.77
    endloop
  endfacet
  facet normal -0 -1 0
    outer loop
      vertex 3.29382 -4.7 8.2807
      vertex 2.75004 -4.7 9.8
      vertex 3 -4.7 8.21754
    endloop
  endfacet
  facet normal 0 -1 0
    outer loop
      vertex 2.75004 -4.7 9.8
      vertex 3.29382 -4.7 8.2807
      vertex 3.4863 -4.7 8.37756
    endloop
  endfacet
  facet normal 0 -1 0
    outer loop
      vertex 3.4863 -4.7 8.37756
      vertex 3.36581 -4.7 8.308
      vertex 3.45445 -4.7 8.34161
    endloop
  endfacet
  facet normal 0 -1 0
    outer loop
      vertex 0 -4.7 8.21754
      vertex -0.598808 -4.7 8.4695
      vertex -0.283684 -4.7 8.25199
    endloop
  endfacet
  facet normal 0 -1 -0
    outer loop
      vertex 2.75004 -4.7 9.8
      vertex 0 -4.7 8.21754
      vertex 3 -4.7 8.21754
    endloop
  endfacet
  facet normal 0 -1 0
    outer loop
      vertex 3.4863 -4.7 8.37756
      vertex 3.29382 -4.7 8.2807
      vertex 3.36581 -4.7 8.308
    endloop
  endfacet
  facet normal 0 -1 0
    outer loop
      vertex 3.29382 -4.7 8.2807
      vertex 3 -4.7 8.21754
      vertex 3.09643 -4.7 8.20583
    endloop
  endfacet
  facet normal 0 -1 0
    outer loop
      vertex 5.11428 -4.7 11.1276
      vertex 6.20836 -4.7 10.8218
      vertex 5.95445 -4.7 11.1084
    endloop
  endfacet
  facet normal 0 -1 0
    outer loop
      vertex 5.11428 -4.7 11.1276
      vertex 6.3 -4.7 10.45
      vertex 6.20836 -4.7 10.8218
    endloop
  endfacet
  facet normal 0 -1 0
    outer loop
      vertex 5.11428 -4.7 11.1276
      vertex 6.20836 -4.7 10.0782
      vertex 6.3 -4.7 10.45
    endloop
  endfacet
  facet normal 0 -1 0
    outer loop
      vertex 2.75004 -4.7 9.8
      vertex 5.11428 -4.7 11.1276
      vertex 5.09808 -4.7 11.1556
    endloop
  endfacet
  facet normal 0 -1 0
    outer loop
      vertex 5.95445 -4.7 9.79161
      vertex 5.11428 -4.7 11.1276
      vertex 2.75004 -4.7 9.8
    endloop
  endfacet
  facet normal 0 -1 0
    outer loop
      vertex 5.11428 -4.7 11.1276
      vertex 5.95445 -4.7 9.79161
      vertex 6.20836 -4.7 10.0782
    endloop
  endfacet
  facet normal 0 -1 0
    outer loop
      vertex 5.11428 -4.7 11.1276
      vertex 5.59643 -4.7 11.2442
      vertex 5.21632 -4.7 11.198
    endloop
  endfacet
  facet normal 0 -1 -0
    outer loop
      vertex 5.59643 -4.7 11.2442
      vertex 5.11428 -4.7 11.1276
      vertex 5.95445 -4.7 11.1084
    endloop
  endfacet
  facet normal 0 -1 0
    outer loop
      vertex 3.36581 -4.7 8.308
      vertex 3.29382 -4.7 8.2807
      vertex 3.3 -4.7 8.27
    endloop
  endfacet
  facet normal -0.885458 0 -0.464719
    outer loop
      vertex -0.598808 -4.7 8.4695
      vertex -0.776753 -4.25 8.80855
      vertex -0.598808 -4.25 8.4695
    endloop
  endfacet
  facet normal -0.885458 -0 -0.464719
    outer loop
      vertex -0.776753 -4.25 8.80855
      vertex -0.598808 -4.7 8.4695
      vertex -0.776753 -4.7 8.80855
    endloop
  endfacet
  facet normal -0.885458 0 0.464719
    outer loop
      vertex -0.776753 -4.7 9.19145
      vertex -0.598808 -4.25 9.5305
      vertex -0.776753 -4.25 9.19145
    endloop
  endfacet
  facet normal -0.885458 0 0.464719
    outer loop
      vertex -0.598808 -4.25 9.5305
      vertex -0.776753 -4.7 9.19145
      vertex -0.598808 -4.7 9.5305
    endloop
  endfacet
  facet normal 1 -0 0
    outer loop
      vertex 3 -4.7 8.21754
      vertex 3 -4.25 8.2
      vertex 3 -4.25 8.21754
    endloop
  endfacet
  facet normal 1 0 0
    outer loop
      vertex 3 -4.25 8.2
      vertex 3 -4.7 8.21754
      vertex 3 -4.7 8.2
    endloop
  endfacet
  facet normal -0 0 1
    outer loop
      vertex 0 -4.25 9.8
      vertex 2.75004 -4.7 9.8
      vertex 2.75004 -4.25 9.8
    endloop
  endfacet
  facet normal 0 0 1
    outer loop
      vertex 2.75004 -4.7 9.8
      vertex 0 -4.25 9.8
      vertex 0 -4.7 9.8
    endloop
  endfacet
  facet normal 0 0 -1
    outer loop
      vertex 0 -4.7 8.2
      vertex 3 -4.25 8.2
      vertex 3 -4.7 8.2
    endloop
  endfacet
  facet normal -0 0 -1
    outer loop
      vertex 3 -4.25 8.2
      vertex 0 -4.7 8.2
      vertex 0 -4.25 8.2
    endloop
  endfacet
  facet normal -1 0 0
    outer loop
      vertex 0 -4.7 9.78246
      vertex 0 -4.25 9.8
      vertex 0 -4.25 9.78246
    endloop
  endfacet
  facet normal -1 -0 0
    outer loop
      vertex 0 -4.25 9.8
      vertex 0 -4.7 9.78246
      vertex 0 -4.7 9.8
    endloop
  endfacet
  facet normal -1 0 0
    outer loop
      vertex 0 -4.7 8.2
      vertex 0 -4.25 8.21754
      vertex 0 -4.25 8.2
    endloop
  endfacet
  facet normal -1 -0 0
    outer loop
      vertex 0 -4.25 8.21754
      vertex 0 -4.7 8.2
      vertex 0 -4.7 8.21754
    endloop
  endfacet
  facet normal 0.354543 0 -0.93504
    outer loop
      vertex 3.36581 -4.7 8.308
      vertex 3.45445 -4.25 8.34161
      vertex 3.45445 -4.7 8.34161
    endloop
  endfacet
  facet normal 0.354543 0 -0.93504
    outer loop
      vertex 3.45445 -4.25 8.34161
      vertex 3.36581 -4.7 8.308
      vertex 3.36581 -4.25 8.308
    endloop
  endfacet
  facet normal 0.354646 0 -0.935001
    outer loop
      vertex 3.09643 -4.7 8.20583
      vertex 3.29382 -4.25 8.2807
      vertex 3.29382 -4.7 8.2807
    endloop
  endfacet
  facet normal 0.354646 0 -0.935001
    outer loop
      vertex 3.29382 -4.25 8.2807
      vertex 3.09643 -4.7 8.20583
      vertex 3.09643 -4.25 8.20583
    endloop
  endfacet
  facet normal -0.12055 0 -0.992707
    outer loop
      vertex 3 -4.7 8.21754
      vertex 3.09643 -4.25 8.20583
      vertex 3.09643 -4.7 8.20583
    endloop
  endfacet
  facet normal -0.12055 0 -0.992707
    outer loop
      vertex 3.09643 -4.25 8.20583
      vertex 3 -4.7 8.21754
      vertex 3 -4.25 8.21754
    endloop
  endfacet
  facet normal 0.7485 0 -0.663135
    outer loop
      vertex 3.4863 -4.7 8.37756
      vertex 3.45445 -4.25 8.34161
      vertex 3.4863 -4.25 8.37756
    endloop
  endfacet
  facet normal 0.7485 0 -0.663135
    outer loop
      vertex 3.45445 -4.25 8.34161
      vertex 3.4863 -4.7 8.37756
      vertex 3.45445 -4.7 8.34161
    endloop
  endfacet
  facet normal -0.499989 0 0.866032
    outer loop
      vertex 2.75004 -4.25 9.8
      vertex 5.09808 -4.7 11.1556
      vertex 5.09808 -4.25 11.1556
    endloop
  endfacet
  facet normal -0.499989 0 0.866032
    outer loop
      vertex 5.09808 -4.7 11.1556
      vertex 2.75004 -4.25 9.8
      vertex 2.75004 -4.7 9.8
    endloop
  endfacet
  facet normal 0.865567 -0 0.500793
    outer loop
      vertex 5.09808 -4.7 11.1556
      vertex 5.11428 -4.25 11.1276
      vertex 5.09808 -4.25 11.1556
    endloop
  endfacet
  facet normal 0.865567 0 0.500793
    outer loop
      vertex 5.11428 -4.25 11.1276
      vertex 5.09808 -4.7 11.1556
      vertex 5.11428 -4.7 11.1276
    endloop
  endfacet
  facet normal 0.865426 -0 0.501036
    outer loop
      vertex 5.89797 -4.7 9.77019
      vertex 5.89808 -4.2 9.77
      vertex 5.89797 -4.2 9.77019
    endloop
  endfacet
  facet normal 0.865426 0 0.501036
    outer loop
      vertex 5.89808 -4.2 9.77
      vertex 5.89797 -4.7 9.77019
      vertex 5.89808 -4.7 9.77
    endloop
  endfacet
  facet normal 0.499997 0 -0.866027
    outer loop
      vertex 5.89808 -4.7 9.77
      vertex 5.5 -4.25 9.54017
      vertex 5.89808 -4.2 9.77
    endloop
  endfacet
  facet normal 0.5 2.48788e-06 -0.866026
    outer loop
      vertex 3.4863 -4.7 8.37756
      vertex 5.5 -4.25 9.54017
      vertex 5.89808 -4.7 9.77
    endloop
  endfacet
  facet normal 0.5 0 -0.866025
    outer loop
      vertex 5.5 -4.25 9.54017
      vertex 3.4863 -4.7 8.37756
      vertex 3.4863 -4.25 8.37756
    endloop
  endfacet
  facet normal 0.499997 0 -0.866027
    outer loop
      vertex 5.89808 -4.2 9.77
      vertex 5.5 -4.25 9.54017
      vertex 5.5 -4.2 9.54017
    endloop
  endfacet
  facet normal 0.500045 0 -0.865999
    outer loop
      vertex 3.3 -4.7 8.27
      vertex 3.36581 -4.25 8.308
      vertex 3.36581 -4.7 8.308
    endloop
  endfacet
  facet normal 0.500045 0 -0.865999
    outer loop
      vertex 3.36581 -4.25 8.308
      vertex 3.3 -4.7 8.27
      vertex 3.3 -4.25 8.27
    endloop
  endfacet
  facet normal -0.865943 0 -0.500143
    outer loop
      vertex 3.3 -4.7 8.27
      vertex 3.29382 -4.25 8.2807
      vertex 3.3 -4.25 8.27
    endloop
  endfacet
  facet normal -0.865943 -0 -0.500143
    outer loop
      vertex 3.29382 -4.25 8.2807
      vertex 3.3 -4.7 8.27
      vertex 3.29382 -4.7 8.2807
    endloop
  endfacet
  facet normal 0.748505 -0 0.663129
    outer loop
      vertex 5.95445 -4.7 11.1084
      vertex 6.20836 -4.2 10.8218
      vertex 5.95445 -4.2 11.1084
    endloop
  endfacet
  facet normal 0.748505 0 0.663129
    outer loop
      vertex 6.20836 -4.2 10.8218
      vertex 5.95445 -4.7 11.1084
      vertex 6.20836 -4.7 10.8218
    endloop
  endfacet
  facet normal 0.970942 -0 0.239315
    outer loop
      vertex 6.20836 -4.7 10.8218
      vertex 6.3 -4.2 10.45
      vertex 6.20836 -4.2 10.8218
    endloop
  endfacet
  facet normal 0.970942 0 0.239315
    outer loop
      vertex 6.3 -4.2 10.45
      vertex 6.20836 -4.7 10.8218
      vertex 6.3 -4.7 10.45
    endloop
  endfacet
  facet normal 0.354604 0 -0.935016
    outer loop
      vertex 5.89797 -4.7 9.77019
      vertex 5.95445 -4.2 9.79161
      vertex 5.95445 -4.7 9.79161
    endloop
  endfacet
  facet normal 0.354604 0 -0.935016
    outer loop
      vertex 5.95445 -4.2 9.79161
      vertex 5.89797 -4.7 9.77019
      vertex 5.89797 -4.2 9.77019
    endloop
  endfacet
  facet normal 0.748493 0 -0.663142
    outer loop
      vertex 6.20836 -4.7 10.0782
      vertex 5.95445 -4.2 9.79161
      vertex 6.20836 -4.2 10.0782
    endloop
  endfacet
  facet normal 0.748493 0 -0.663142
    outer loop
      vertex 5.95445 -4.2 9.79161
      vertex 6.20836 -4.7 10.0782
      vertex 5.95445 -4.7 9.79161
    endloop
  endfacet
  facet normal -0.120448 0 0.99272
    outer loop
      vertex 5.5 -4.25 11.2325
      vertex 5.59643 -4.2 11.2442
      vertex 5.5 -4.2 11.2325
    endloop
  endfacet
  facet normal -0.120448 0 0.99272
    outer loop
      vertex 5.59643 -4.2 11.2442
      vertex 5.5 -4.25 11.2325
      vertex 5.59643 -4.7 11.2442
    endloop
  endfacet
  facet normal -0.120726 0 0.992686
    outer loop
      vertex 5.21632 -4.7 11.198
      vertex 5.5 -4.25 11.2325
      vertex 5.21632 -4.25 11.198
    endloop
  endfacet
  facet normal -0.120656 -4.51458e-05 0.992694
    outer loop
      vertex 5.5 -4.25 11.2325
      vertex 5.21632 -4.7 11.198
      vertex 5.59643 -4.7 11.2442
    endloop
  endfacet
  facet normal 0.970942 0 -0.239315
    outer loop
      vertex 6.3 -4.7 10.45
      vertex 6.20836 -4.2 10.0782
      vertex 6.3 -4.2 10.45
    endloop
  endfacet
  facet normal 0.970942 0 -0.239315
    outer loop
      vertex 6.20836 -4.2 10.0782
      vertex 6.3 -4.7 10.45
      vertex 6.20836 -4.7 10.0782
    endloop
  endfacet
  facet normal -0.567884 0 0.823109
    outer loop
      vertex 5.11428 -4.25 11.1276
      vertex 5.21632 -4.7 11.198
      vertex 5.21632 -4.25 11.198
    endloop
  endfacet
  facet normal -0.567884 0 0.823109
    outer loop
      vertex 5.21632 -4.7 11.198
      vertex 5.11428 -4.25 11.1276
      vertex 5.11428 -4.7 11.1276
    endloop
  endfacet
  facet normal 0.354653 0 0.934998
    outer loop
      vertex 5.59643 -4.2 11.2442
      vertex 5.95445 -4.7 11.1084
      vertex 5.95445 -4.2 11.1084
    endloop
  endfacet
  facet normal 0.354653 0 0.934998
    outer loop
      vertex 5.95445 -4.7 11.1084
      vertex 5.59643 -4.2 11.2442
      vertex 5.59643 -4.7 11.2442
    endloop
  endfacet
endsolid OpenSCAD_Model
